<svg width="1600" height="869" viewBox="0 0 1600 869" fill="none" xmlns="http://www.w3.org/2000/svg">
<mask id="mask0_1_87" style="mask-type:alpha" maskUnits="userSpaceOnUse" x="0" y="0" width="1600" height="869">
<rect width="1600" height="869" fill="#FBFAFF"/>
</mask>
<g mask="url(#mask0_1_87)">
<g opacity="0.1">
<rect width="57.1118" height="33.2743" rx="16.6372" transform="matrix(0.578224 -0.815878 0.794162 0.607706 1422.73 743.416)" fill="#5D3BEE"/>
<rect width="150.951" height="33.2743" rx="16.6372" transform="matrix(0.578224 -0.815878 0.794162 0.607706 1327.84 880.23)" fill="#5D3BEE"/>
<rect width="379.747" height="33.2743" rx="16.6372" transform="matrix(0.578224 -0.815878 0.794162 0.607706 1307.49 1005.46)" fill="#5D3BEE"/>
<rect width="141.597" height="33.2743" rx="16.6372" transform="matrix(0.578224 -0.815878 0.794162 0.607706 1451.19 893.74)" fill="#5D3BEE"/>
</g>
<g opacity="0.1">
<rect width="139.785" height="81.4414" rx="40.7207" transform="matrix(0.578224 -0.815878 0.794162 0.607706 383.684 278.696)" fill="#5D3BEE"/>
<rect width="369.464" height="81.4414" rx="40.7207" transform="matrix(0.578224 -0.815878 0.794162 0.607706 151.442 613.558)" fill="#5D3BEE"/>
<rect width="929.458" height="81.4414" rx="40.7207" transform="matrix(0.578224 -0.815878 0.794162 0.607706 101.627 920.073)" fill="#5D3BEE"/>
<rect width="346.568" height="81.4414" rx="40.7207" transform="matrix(0.578224 -0.815878 0.794162 0.607706 453.332 646.625)" fill="#5D3BEE"/>
</g>
</g>
</svg>
