<?xml version="1.0" encoding="UTF-8"?>
<svg version="1.1" viewBox="0 0 2048 1170" width="1280" height="1280" xmlns="http://www.w3.org/2000/svg">
<path transform="translate(0)" d="m0 0h2048v1170h-2048z" fill="#FDFDFD"/>
<path transform="translate(982,74)" d="m0 0 4 1 20 30 35 1 11 1 10-13 12-17 8 1 21 7 4 2v40l14 9 11 9 10 9 35-11 4 1 11 15 6 10-1 5-14 17-8 10 8 22 3 12 1 11 16 4 21 7 1 2v21l-2 12-13 4-21 6-3 1-7 25-7 16 1 4 12 17 8 11-2 5-3 5h11l2-2v-9l-2-12v-5l10-7 11-5 16 13 4 2 12-2 18-1 8-8 7-8 4-1 16 6 4 3v25l53-11 80-18 45-9 37-6 26-3 33-2h20l29 2 24 4 23 6 21 8 16 8 15 9 12 9 13 11 14 14 12 16 11 18 11 23 7 20 6 22 5 28 2 20 1 32-1 26-4 36-7 36-8 31-5 15 26-10 23-6 4 1-10 20-8 13-1 5h3l6-7 10-15 8-10 8-9h19l12 4 11 10 3 8v9l-4 14-4 4-12 5-30 4-3 1 2 4 10 4h8l15-3h4l-2 5-12 20-9 11-4 1h-13l-25-11-13-4h-9l-2 3 10 3 25 7 12 6 2 3v5l-11 5-10 3-8 1h-10l-14-3-10-6-4-5-2-3-13 26 1 6 5 16h14l12 3 11 6 2 1 7-10 5-4 9-1 17 5 11 6 6 6v2l-2 1-23 1 3 5 10 5 24 5 5 10 4 13 1 5v18l-4 10-7 7-10 5-8 2h-9l-2-5-2-30-2-3-5 1-2 3v11l5 18v5h-14l-23-4-8-6-3-7 1-9 6-9-7 7-10 5-4 1-14-8-4-3-1 8-7 28 24 1v8h-78v-8h22l-2-19v-20l3-19 5-12 8-11-7 2h-12l3-11 10-23v-6l-4-3-5 2-1 21-2 10-4 8-2 2h-13l-10 11-7 8-16 16-8 7-13 11-18 13-21 13-29 15-12 5h-2l7 36 4 20v3h-6l-2-5-6-25-7-30-5-19-5-21-6-25-9-39-6-25h-45l-24-3-15-3-2-1-4 17-6 23-2 6v7l10 28 4 8 14 20 10 13 7 3 8 4 2 2-1 8-3 11-6 35-3 7-8 2-19 2h-9l-6-2 2-4 9-7 4-13 3-18v-12l-3-6-7-7-9-11-3-2-5 2-8-5-8 29-6 23-6 24-3 9h-6l1-11 5-21 12-53 2-9-4-2-14-12-23-23-9-11-13-16-1-2v9l4 44 2 27 1 6 3 38 3 36h-11l-6-47-3-20-4-33-2-12-2-17-4-29-2-17v-7h-2l-2 5-6 12-6 10-9 13-12 13-9 10-38 38-9 11-7 1-3 13v12l3 10 2 4-1 5-6 5-32 10-17 7-15 3h-14l-8-2 1-5 11-7 13-8 10-13 19-29 9-14 1-6 19-37 12-22 13-24 13-23 14-25 16-27 12-20 6-8h2l2-6 3-4-1-19-1-9h-256v8l-5 35-4 32-4 29-2 17-5 38-4 29-2 17-4 29-2 15-2 19-3 19-3 21h-10v-10l1-11h-26l-73-3-57-4-58-6-47-7-26-2-26-1h-106l-53 1-48-12-37-12-28-11-26-12-24-12-27-16-22-15-19-14-13-11-11-9-11-11-8-7-4-5-12-12-9-11-10-12-13-18-11-17-11-19-8-16-8-17-11-29-9-28-8-32-5-28-3-25-1-16v-37l3-34 5-29 8-31 10-29 10-23 9-19 13-23 18-27 12-16 13-16 9-10 7-8 10-10 2-1h236v-76h347v62l13-4 4-1 7-23 8-19-1-4-14-19-6-8 1-5 8-11 9-11 2-2 5 1 20 8 12 4 13-11 19-12 6-2v-40l18-6z" fill="#E6F1FC"/>
<path transform="translate(982,74)" d="m0 0 4 1 20 30 35 1 11 1 10-13 12-17 8 1 21 7 4 2v40l14 9 11 9 10 9 35-11 4 1 11 15 6 10-1 5-14 17-8 10 8 22 3 12 1 11 16 4 21 7 1 2v21l-2 12-13 4-21 6-3 1-7 25-7 16 1 4 12 17 8 11-2 5-10 14-8 9-6-1-28-11-5 1-17 13-15 9-4 1v40l-11 4h-3v213h-238v76h-278l1 7 9 2 16 5 1 1v20l-1 4-25 7-7 21-3 7 1 5 10 13 3 4-1 4-8 11-4 5-7-1-18-7-4 2-14 10-9 5-1 27-10 4-7 2h-6l-8-11-6-10h-20l-12-1-10 13-6 8-12-3-11-5 1-27-11-7-13-11-9 2-17 5-7-8-6-10 1-4 11-14 3-4-3-10-4-14-1-8-7-1-18-6-1-2v-13l1-9 8-3 18-5 4-15 6-15-13-18-2-4 8-11 6-7 5 1 18 7 5-1 10-8 7-4-136-1v-417h236v-76h347v62l13-4 4-1 7-23 8-19-1-4-14-19-6-8 1-5 8-11 9-11 2-2 5 1 20 8 12 4 13-11 19-12 6-2v-40l18-6z" fill="#98BAEA"/>
<path transform="translate(1052,731)" d="m0 0h256l2 9 1 19-6 10-5 5-17 28-15 26-13 23-15 27-13 24-14 26-14 27-2 7-11 18-19 28-8 10-13 8-11 7-1 4 8 1h14l15-3 23-9 26-8 5-4 1-5-4-9-1-5v-12l3-13 1-1 7-1 9-11 44-44 7-8 11-13 6-9 7-14 6-10 1-2h2l5 36 2 17 4 29 4 33 6 43 2 16v8h11l-1-3-5-55-1-16-2-17-3-38-2-22v-10l5 5 11 14 12 14 23 23 11 9 3 2-1 9-9 39-6 27-4 19h6l2-9 8-32 4-15 8-29h3l6 4 6-2 11 12 7 8 3 4 1 3v12l-3 18-4 13-6 5-5 4v2l5 1 21-1 13-2 3-3 3-14 5-30 3-9v-5l-6-4-9-3-8-9-11-16-9-13-11-30-1-3v-7l8-29 4-15 1-2 31 5 10 1h45l3 9 5 21 8 35 10 40 5 21 6 27 4 15 5 21 6 1-6-28v-3h132v-26h78v32l8 1 12 5 6 5 1 2v6l-4 5-12 6-17 5-24 4-32 3-130 7-73 3-38 1h-111l-85 1-170 3-162 2h-125l-67-1-65-2-68-4-61-3-31-1-52-1-97-1-39-1-34-2-31-4-15-4-12-6-6-7v-5l8-6 15-5 22-5 41-6 48-5 70-5 85-4 39-1h106l41 2 24 3 42 6 50 5 57 4 99 4v11l-1 10h10l1-13 2-12 4-34 3-21 4-29 2-17 5-38 4-29 2-17 4-29 4-34z" fill="#CCE1FE"/>
<path transform="translate(517,191)" d="m0 0h318v537h-318z" fill="#FCFDFD"/>
<path transform="translate(846,264)" d="m0 0h230v393h-230z" fill="#FDFDFE"/>
<path transform="translate(276,264)" d="m0 0h223v393h-224v-392z" fill="#FCFDFE"/>
<path transform="translate(1585,638)" d="m0 0h6l5 4v7l-8 28-7 28-2 15v23l4 25 2 16v17l-3 15-7 14-8 8-9 5-8 3h-2l8 38 20 100 10 52v3h-6l-2-5-6-25-7-30-5-19-5-21-6-25-9-39-6-25h-45l-24-3-15-3-2-1-4 17-6 23-2 6v7l10 28 4 8 14 20 10 13 7 3 8 4 2 2-1 8-3 11-6 35-3 7-8 2-19 2h-9l-6-2 2-4 9-7 4-13 3-18v-12l-3-6-7-7-9-11-3-2-5 2-8-5-8 29-6 23-6 24-3 9h-6l1-11 5-21 12-53 2-9-4-2-14-12-23-23-9-11-13-16-1-2v9l4 44 2 27 1 6 3 38 3 36h-11l-6-47-3-20-4-33-2-12-2-17-4-29-2-17v-7h-2l-2 5-6 12-6 10-9 13-12 13-9 10-38 38-9 11-7 1-3 13v12l3 10 2 4-1 5-6 5-32 10-17 7-15 3h-14l-8-2 1-5 11-7 13-8 10-13 19-29 9-14 1-6 19-37 12-22 13-24 13-23 14-25 16-27 12-20 6-8h2l2-6 3-4-1-19-1-9h-256v8l-5 35-4 32-4 29-2 17-5 38-4 29-2 17-4 29-2 15-2 19-3 19-3 21h-10l1-25 3-34 3-28 4-44 1-16 1-6 3-38 6-66 5-51h-73l-2-2v-13l2-2h282l1 1h114l2-1h43l6 3 5 1v11l-2 2h-76l1 7v9l8-2 42-5 28-4 28-2h24l3 3 17 9 43 28 14 8 11 4h10l5-5 1-7-5-37v-15l3-20 5-21 6-20 5-18z" fill="#75A1DD"/>
<path transform="translate(982,74)" d="m0 0 4 1 20 30 35 1 11 1 10-13 12-17 8 1 21 7 4 2v40l14 9 11 9 10 9 35-11 4 1 11 15 6 10-1 5-14 17-8 10 8 22 3 12 1 11 16 4 21 7 1 2v21l-2 12-13 4-21 6-3 1-7 25-7 16 1 4 12 17 8 11-2 5-10 14-8 9-6-1-28-11-5 1-17 13-15 9-4 1v40l-11 4h-3v-204h-237v-14l8-3 8-2 7-23 8-19-1-4-14-19-6-8 1-5 8-11 9-11 2-2 5 1 20 8 12 4 13-11 19-12 6-2v-40l18-6z" fill="#9EC8FE"/>
<path transform="translate(1052,731)" d="m0 0h256l2 9 1 19-6 10-5 5-17 28-15 26-13 23-15 27-13 24-14 26-14 27-2 7-11 18-19 28-7 9h-31l-31 1h-83l1-15 2-15 2-12 2-17 4-29 2-17 5-38 4-29 2-17 4-29 4-34z" fill="#E6F1FC"/>
<path transform="translate(400,673)" d="m0 0h98l1 1v75h69l1 7 9 2 16 5 1 1v20l-1 4-25 7-7 21-3 7 1 5 10 13 3 4-1 4-8 11-4 5-7-1-18-7-4 2-14 10-9 5-1 27-10 4-7 2h-6l-8-11-6-10h-20l-12-1-10 13-6 8-12-3-11-5 1-27-11-7-13-11-9 2-17 5-7-8-6-10 1-4 11-14 3-4-3-10-4-14-1-8-7-1-18-6-1-2v-13l1-9 8-3 18-5 4-15 6-15-13-18-2-4 8-11 6-7 5 1 18 7 5-1 10-8z" fill="#9EC8FE"/>
<path transform="translate(1869,702)" d="m0 0h19l12 4 11 10 3 8v9l-4 14-4 4-12 5-30 4-3 1 2 4 10 4h8l15-3h4l-2 5-12 20-9 11-4 1h-13l-25-11-13-4h-9l-2 3 10 3 25 7 12 6 2 3v5l-11 5-10 3-8 1h-10l-14-3-10-6-4-5-2-3-13 26 1 6 5 16h14l12 3 11 6 2 1 7-10 5-4 9-1 17 5 11 6 6 6v2l-2 1-23 1 3 5 10 5 24 5 5 10 4 13 1 5v18l-4 10-7 7-10 5-8 2h-9l-2-5-2-30-2-3-5 1-2 3v11l5 18v5h-14l-23-4-8-6-3-7 1-9 6-9-7 7-10 5-4 1-14-8-4-3-1 8-7 28 24 1v8h-78v-8h22l-2-19v-20l3-19 5-12 8-11-7 2h-12l3-11 10-23v-6l-4-3-5 2-1 21-2 10-4 8-2 2-14-2-18-5-16-7-7-4v-5l8-8 18-10 13-7 2-4-7-1-8 3-12 9-14 12-7 5-5-2-8-9-4-9v-10l5-10 9-9 13-8 7-3h7l13 5 18 10 8 1-1-7-8-9-5-4 11 1 12 5 9 6 6 5 4 5v2l6 1 8 5 6 5 7-19 2-10v-5l-15-15-5-9-1-5v-8l3-10 9-10 14-10 6-3 2 1-5 23v15l3 3h4l1-10-1-15v-13l2-7 16-7 18-6 16-4 4 1-10 20-8 13-1 5h3l6-7 10-15 8-10z" fill="#9DD49A"/>
<path transform="translate(956,714)" d="m0 0h282l1 1h114l2-1h43l6 3 5 1v11l-2 2h-76l4 36 9 100 2 21 4 44 2 27 1 6 3 38 3 36h-11l-6-47-3-20-4-33-2-12-2-17-4-29-2-17v-7h-2l-2 5-6 12-6 10-9 13-12 13-9 10-38 38-9 11-7 1-3 13v12l3 10 2 4-1 5-6 5-32 10-17 7-15 3h-14l-8-2 1-5 11-7 13-8 10-13 19-29 9-14 1-6 19-37 12-22 13-24 13-23 14-25 16-27 12-20 6-8h2l2-6 3-4-1-19-1-9h-256v8l-5 35-4 32-4 29-2 17-5 38-4 29-2 17-4 29-2 15-2 19-3 19-3 21h-10l1-25 3-34 3-28 4-44 1-16 1-6 3-38 6-66 5-51h-73l-2-2v-13z" fill="#2D5B99"/>
<path transform="translate(576,129)" d="m0 0h44l30 2 34 4 38 7 36 9 29 9 27 10 19 8 13 1v1h-347v76h-236v417h-1v-418l8-7 9-9 11-9 14-12 19-14 23-15 18-10 23-11 31-11 35-10 36-8 30-5 26-3z" fill="#E6F1FD"/>
<path transform="translate(1545,560)" d="m0 0h7l8 16 6 14 5 17 2 14v23l-3 23-5 29-1 13-2 13v15l5 37-1 7-4 5-2 1h-10l-13-5-17-10-15-10-20-13-16-9-7-4v-2l-42 2-32 4-12 2-36 4-8 1-1-16 76-1 1-1 1-11-7-1-4-2h-43l-2 1h-114l-4-4-14-30-13-28-16-35v-8l5-4 7 1 4 4 13 28 18 39 9 19v2h29l2-4 13-10 19-11 5-2h11l31 9 16 1 2-1 18 1h55l5-5 6-9 2-30 4-19 6-15 5-8 14-14 11-9 9-6 11-4 15-3z" fill="#F1E4DD"/>
<path transform="translate(1511,424)" d="m0 0h10l10 3 10 7 8 10 5 10 4 21 1 10v34l3 4v2l13-5 12-3 13-1 12 2 12 5 12 8 11 8 9 4 25 6 16 8 8 7 9 14 4 11 3 18v8l-3 15-8 20-5 9-9 10-8 6-10 5-11 3-16 4-8 4-9 7-6 7-5 10-1 4-4-2v-2h-2l-6-9-4-9-1-4v-13l3-9 9-16 5-11 1-4v-16l-4-9-8-9-14-8-14-6-10-7-7-7-6-10-3-8-1-6v-11l2-8v-5l-3-4h-4v2l-6 3-5 1h-11l-12-3-7-4-5-5-6-9-4-13v-2l-10 2-7-1-5-18v19l-1 1-8 1h-20l-2-1v-22l3-13 4-10 6-8 9-6 6-2 7-1 16-8 12-4z" fill="#303D61"/>
<path transform="translate(1286,341)" d="m0 0 5 1 14 5 4 3 1 25 8 7 7 7 5 7 25 3 5 12 2 11-14 11-4 3-2 20-3 13 13 19-2 6-10 14-12-2-9-2h-5l-11 8-16 8-7 22-7 2h-17l-10-21-18-6-11-6-10 3-13 5-4-2-7-7-6-8 9-19 1-4-5-12-3-13v-5l-5-2-16-9v-11l3-13 5-2 20-4 2-6 7-11 6-7v-9l-2-12v-5l10-7 11-5 16 13 4 2 12-2 18-1 8-8 7-8z" fill="#9EC8FE"/>
<path transform="translate(577,220)" d="m0 0h199l1 1v184l-1 1h-28l-4-18-4-9-6-7-14-7-10-3-14-15v-14l5-5 8-16 8-3 4-5 1-3v-10l-2-2-6-1 1-7v-18l-9-12-12-8-9-3h-9l-14 4-6 2-11 4-4 5v9l2 16v8l-7 1-2 3v9l5 8 4 2h5l8 16 5 6v11l-2 5-13 13-16 6-10 6-6 7-3 7-2 16-1 1h-32v-184z" fill="#FDFDFD"/>
<path transform="translate(318,281)" d="m0 0h149l4 4v137l-4 4h-149l-4-4v-137z" fill="#FAFCFD"/>
<path transform="translate(578,214)" d="m0 0h197l6 3 2 4v183l-3 6-2 1h-203l-4-4-1-2v-184l3-5zm-1 6-1 1v184h32l1-1 2-16 5-10 8-7 13-6 10-4 13-13 1-4v-11l-7-9-6-13-7-1-5-5-2-4v-9l2-3 7-1v-8l-2-16v-9l4-5 11-4 9-3 11-3h9l11 4 11 8 8 11v18l-1 7 7 2 1 1v10l-4 7-5 3-4 1-8 16-5 5v14l9 9 5 6 15 5 10 6 6 7 4 11 3 15h28l1-1v-184l-1-1z" fill="#D4E1E9"/>
<path transform="translate(276,264)" d="m0 0h223v393h-41v-14l2-30 1-4h-169l-3-5 3-4h170v-10h-170l-3-5 4-4h170v-9h-171v-2h-2l-1-4 3-3 171-1 2-20 19-276-208-1z" fill="#E4F0FC"/>
<path transform="translate(1448,843)" d="m0 0 31 5 10 1h45l3 9 5 21 8 35 10 40 5 21 6 27v6l-37 1h-49l-1-4 4-21 2-5v-5l-6-4-9-3-8-9-11-16-9-13-11-30-1-3v-7l8-29 4-15z" fill="#E6F1FC"/>
<path transform="translate(1311,755)" d="m0 0h1l8 64 5 38h-2l-2 5-6 12-6 10-9 13-12 13-9 10-38 38-9 11-7 1-3 13v12l3 10 2 4-1 5-6 5-32 10-17 7-15 3h-14l-8-2 1-5 11-7 13-8 10-13 19-29 9-14 1-6 19-37 12-22 13-24 13-23 14-25 16-27 12-20 6-8h2l2-6 3-4z" fill="#6891C9"/>
<path transform="translate(846,264)" d="m0 0h230v393h-1v-392h-203v25l-9 255v17l197 1 3 3-2 5-1 1-198 1-1 8h199l3 4-1 4-2 1h-199v9l199 1 3 3-1 4-1 2h-201v22l-1 26h-13z" fill="#E2EFFB"/>
<path transform="translate(887,286)" d="m0 0h145l1 1v133l-1 1h-24l-6-10-7-6-13-5-9-2v-4l9-6 6-9 4-9 3-16v-14l-2-9-5-8-5-4-9-4-5-4-9-3h-9l-11 4-7 6-6 12-2 7v22l4 14 7 12 8 7 6 3-1 3-14 3-10 5-7 7-5 8h-26z" fill="#FCFCFD"/>
<path transform="translate(1545,560)" d="m0 0h7l8 16 6 14 5 17 2 14v23l-3 23-5 29-1 13-2 13v15l5 37-1 7-4 5-2 1h-10l-13-5-17-10-15-10-20-13-16-9-7-4-4-10 1-3 27-2 11-2 5-5 14-22 14-24 14-27 9-21 2-9v-19l-4-13-4-6-7-6-4-1h-10l-10 5-7 8-9 16-13 28-13 25-11 18-2 1v-18l3-21 5-16 7-14 15-15 11-9 9-6 11-4 15-3z" fill="#F37168"/>
<path transform="translate(1323,857)" d="m0 0h2l5 36 2 17 4 29 4 33 4 28v12l-99 2h-19l-1-8-3-6-1-5v-12l3-13 1-1 7-1 9-11 44-44 7-8 11-13 6-9 7-14 6-10z" fill="#E6F1FC"/>
<path transform="translate(449,718)" d="m0 0h15l12 3 13 7 8 7 2 3v11h7l4 11 1 6v12l-3 13-7 13-9 10-11 7-11 4-4 1h-19l-15-5-10-7-9-9-6-10-4-13v-20l5-15 7-10 8-8 14-8z" fill="#E6F1FC"/>
<path transform="translate(1585,638)" d="m0 0h6l5 4v7l-8 28-7 28-2 15v23l4 25 2 16v17l-3 15-7 14-8 8-9 5-8 3h-2l8 38 20 100 10 52v3h-6l-2-5-6-25-7-30-5-19-5-21-6-25-9-39-6-25h-45l-24-3-15-3-2-1-4 17-6 23-3 9-2-1-7-15 8-36-15 1-7 3-7-1-4-5 1-7 5-4 8-3 13-1 17 2 26 5 29 3h25l14-2 13-4 7-5 6-10 2-7v-27l-4-25-2-16v-15l3-20 5-21 6-20 5-18z" fill="#2E5C9A"/>
<path transform="translate(1013,192)" d="m0 0h24l15 4 16 8 10 8 8 8 9 14 6 15 2 10v19l-3 15-5 12-9 14-2 1v-64h-136l2-10 4-10 7-12 9-10 10-9 14-8 13-4z" fill="#FDFDFD"/>
<path transform="translate(676,239)" d="m0 0h9l11 4 11 8 9 12v18l-2 7h6l3 3v10l-4 7-6 4h-4l-3 9-5 8-5 5-1 14-10 18-5 6-4-1-7-9-9-14v-15l-7-9-5-12-7-1-5-4-3-6v-9l3-4h7l-3-24v-9l5-6 11-4 9-3z" fill="#F09758"/>
<path transform="translate(951,307)" d="m0 0h9l11 4 4 4 10 4 7 8 3 7 1 6v14l-3 16-7 14-5 6-8 5v2l15 4 10 5 8 9 2 6h-95l4-8 8-8 10-5 14-3 1-2-6-2-9-8-7-12-4-14v-22l4-12 6-9 8-6z" fill="#F19959"/>
<path transform="translate(1345,878)" d="m0 0 5 5 11 14 12 14 23 23 11 9 3 2-1 9-9 39-4 17-2 1h-37l-2-8-3-38-2-17-3-38-2-22z" fill="#E5F1FC"/>
<path transform="translate(578,214)" d="m0 0h197l6 3 2 4v183l-3 6-2 1h-203l-4-4-1-2v-184l3-5zm-1 6-1 1v184l1 1h199l1-1v-184l-1-1z" fill="#98BAEA"/>
<path transform="translate(384,305)" d="m0 0h13l22 6 8 6 3 6 2 12 7 9 6 9v11l-6 14-2 9-6 5-5 2-20 1v-16l5-5 6-11 6-3 3-5v-8l-2-2-6 1h-4l-5-8-3-9v-3h-2l-2 5-5 6-10 7-11 4h-5l-4-3-5 1-1 2v7l4 6 7 2 6 12 5 5v14l-10-1-13-3-7-8-6-14v-8l6-8v-16l13-13 7-12 5-4z" fill="#3C384D"/>
<path transform="translate(1712,982)" d="m0 0h78v28l-1 9-6 9-7 6-7 3-5 1h-27l-8-2-8-5-6-8-3-6z" fill="#75A1DE"/>
<path transform="translate(1197,607)" d="m0 0 7 1 4 4 13 28 18 39 9 19v2l31-1 16-6 14-7 4 2 8 7 10 4 22 1 4 4 1 7-5 5h-114l-4-4-14-30-13-28-16-35v-8z" fill="#75A1DE"/>
<path transform="translate(1255,408)" d="m0 0h10l11 4 6 4 8 9 4 10v15l-4 10-6 8-9 6-8 3h-14l-11-4-10-9-6-12-1-5v-9l3-10 6-9 7-6 9-4z" fill="#E6F1FC"/>
<path transform="translate(1197,961)" d="m0 0 5 1 15 5 8 2-3 14v12l3 10 2 4-1 5-6 5-32 10-17 7-15 3h-14l-8-2 1-5 11-7 13-8 10-13 19-29z" fill="#F19959"/>
<path transform="translate(951,307)" d="m0 0h9l11 4 4 4 10 4 7 8 3 7 1 6v14l-3 16-7 14-5 6-6 4h-3v-14l8-9 2-7v-11l-4-16-3-8-4 5-4 3-16 6-8 7-2 5v12l6 10 3 2v16l-6-2-9-8-7-12-4-14v-22l4-12 6-9 8-6z" fill="#D54B41"/>
<path transform="translate(1447,929)" d="m0 0 4 4 13 19 10 13 7 3 8 4 2 2-1 8-3 11-6 35-3 7-8 2-19 2h-9l-6-2 2-4 9-7 4-13 3-18v-12l-3-6-7-7-9-11-2-3 7-7 5-12z" fill="#F19959"/>
<path transform="translate(1560,162)" d="m0 0 5 1-1 6-13 13-7 8-8 8-1 27-4 6-6 3h-35l-5-3-4-5-1-2v-36l4-6 4-3h39l7 6 2 2 8-8 7-8z" fill="#FCFCFC"/>
<path transform="translate(540,599)" d="m0 0h273l4 3-1 7-2 1h-275l-3-3v-5z" fill="#98BAEA"/>
<path transform="translate(885,281)" d="m0 0h149l4 4v137l-3 4h-150l-3-3-1-2v-135zm2 5v135h145l1-1v-133l-1-1z" fill="#98BAEA"/>
<path transform="translate(318,281)" d="m0 0h149l4 4v137l-4 4h-149l-4-4v-137zm2 5-1 1v133l1 1h145l1-1v-132l-1-2z" fill="#98BAEA"/>
<path transform="translate(598,458)" d="m0 0h157l4 4 1 7-3 5-3 2h-155l-5-4-1-2v-6l3-5z" fill="#98BAEA"/>
<path transform="translate(538,625)" d="m0 0h277l2 2v6l-2 2h-277l-2-2v-6z" fill="#98BAEA"/>
<path transform="translate(538,651)" d="m0 0h277l2 2-1 7-2 1h-275l-3-2v-6z" fill="#98BAEA"/>
<path transform="translate(404,326)" d="m0 0h2l6 16 3 4 5-2 5 1 2 2v8l-4 6-6 3-5 10-4 5h-2v16l-3 10-7 10-5-1-7-12-2-8v-14l-7-8-3-6v-3l-7-1-4-5-1-2v-7l4-4 5 1 2 2 9-1 12-6 3-3h2l2-4z" fill="#EF9557"/>
<path transform="translate(1551,626)" d="m0 0 1 4-5 21-18 54-3 16v13l3 12 5 11-1 5-5-1-6-5-6-8-12-7-19-6-26-5-1-6 1-1 27-2 11-2 5-5 14-22 14-24 14-27z" fill="#D54C41"/>
<path transform="translate(676,239)" d="m0 0h9l11 4 11 8 9 12v18l-2 7-2 1-2 16-1 3h-2l-2-18-3-3-9-7-8-11-5-5-3-2h-8l-11 6-4 6v18l-4 13h-2l-1-3-1-11-3-5-3-22v-9l5-6 11-4 9-3z" fill="#3B384D"/>
<path transform="translate(617,487)" d="m0 0h119l5 5v8l-4 4-2 1h-117l-5-3-1-2v-8z" fill="#98BAEA"/>
<path transform="translate(1419,953)" d="m0 0 8 5 6-2 11 12 7 8 3 4 1 3v12l-2 13-1 1-13 1h-35l1-8 5-19 8-29z" fill="#E5F0FC"/>
<path transform="translate(1630,170)" d="m0 0h35l9 3 7 8 2 4v41l-4 9-9 6-4 1h-38l-8-4-6-7-2-6v-39l4-8 6-5zm-2 9-7 6-1 3v37l7 8 3 1h35l8-5 2-4v-38l-6-7-2-1z" fill="#A0C9FE"/>
<path transform="translate(640,363)" d="m0 0h3l15 28 2 2 7-5h3v11l2-11h1v9l-2 9h-94v-1l31-1 2-16 5-10 9-8 13-6z" fill="#D3E1E9"/>
<path transform="translate(714,363)" d="m0 0 9 2 11 6 8 9 4 11 2 15h-61l-3-14v-6h2v2l5 1 4 3 14-22z" fill="#D3E1E9"/>
<path transform="translate(1490,170)" d="m0 0h35l9 3 7 7-1 4-5 4-6-7-2-1h-39l-5 4-2 4v36l4 6 5 3h35l6-3 3-5 1-27 8-8h1v34l-4 9-4 5-10 4h-38l-8-4-5-5-3-7v-38l2-7 6-7z" fill="#A1CAFD"/>
<path transform="translate(1511,526)" d="m0 0 6 2 12 3h13l3 4 3-1 2 11 1 15-24 4-13 4-8 4-10 8-13 12-6 5 2-5 12-21 3-19 18-6v-14z" fill="#F2E5DD"/>
<path transform="translate(858,582)" d="m0 0h203l2 5-3 3h-201l-2-2v-5z" fill="#98BAEA"/>
<path transform="translate(859,563)" d="m0 0h201l3 3-2 5h-202l-2-1v-5z" fill="#98BAEA"/>
<path transform="translate(292,563)" d="m0 0h201l2 1v6l-2 1h-201l-3-3 1-4z" fill="#98BAEA"/>
<path transform="translate(291,582)" d="m0 0h203l1 1v5l-2 2h-201l-3-5z" fill="#98BAEA"/>
<path transform="translate(942,398)" d="m0 0h8l8 15 5 1 7-10 2-6 10 1 13 5 9 8 4 7v2h-95l4-8 8-8 10-5z" fill="#D75143"/>
<path transform="translate(1410,719)" d="m0 0 12 1 16 2 15 1 5 1 3 10-41 2-32 4-12 2-36 4-8 1-1-16 76-1 2-2z" fill="#E3EFFB"/>
<path transform="translate(1316,673)" d="m0 0h11l31 9 16 2v17l-11-2-16-2-8 3h-8l-10-4-10-9-6 2-17 8-9 3h-2l2-4 13-10 19-11z" fill="#F19959"/>
<path transform="translate(858,601)" d="m0 0h203l2 2-1 4-1 1h-203l-1-1v-5z" fill="#98BAEA"/>
<path transform="translate(291,601)" d="m0 0h203l1 1v5l-1 1h-203l-2-4z" fill="#98BAEA"/>
<path transform="translate(405,395)" d="m0 0 4 1h-3v2l10 1 12 5 9 8 4 8h-95l4-7 5-6 10-6 9-3 9-1 7 14 2 3 5-1 6-10z" fill="#D4E1E9"/>
<path transform="translate(1219,998)" d="m0 0h3l5 11-1 5-6 5-32 10-17 7-15 3h-14l-8-2 1-5 11-7 5-3 16-1 15-5 35-17z" fill="#D64D41"/>
<path transform="translate(1472,478)" d="m0 0 2 1 4 15v3h7l10-1 5 15 7 11 3 3-11 8-5 2h-11l-8-5-8-9-6-14-1-7 12-2z" fill="#EF9558"/>
<path transform="translate(916,481)" d="m0 0h88l3 4-1 7-3 2h-87l-4-4 1-7z" fill="#98BAEA"/>
<path transform="translate(349,481)" d="m0 0h87l4 4-1 7-3 2h-87l-4-4 1-7z" fill="#98BAEA"/>
<path transform="translate(846,180)" d="m0 0h1v5l6 2 19 9 5 4-6 14-7 23-9 3-9 2z" fill="#E5F0FD"/>
<path transform="translate(1479,969)" d="m0 0 7 1 5 4-1 8-3 11-6 35-3 7-8 2-19 2h-9l-6-2 2-4 8-6 14-2 7-5 6-12 4-18z" fill="#D64E42"/>
<path transform="translate(1759,879)" d="m0 0 1 4-3 31-3 46h-13l-2-14v-19l2-14 5-16 8-13z" fill="#FBFBFC"/>
<path transform="translate(929,459)" d="m0 0h62l5 4v6l-4 4h-64l-5-5 1-6z" fill="#98BAEA"/>
<path transform="translate(361,459)" d="m0 0h63l5 4v6l-5 4h-63l-5-4v-6z" fill="#98BAEA"/>
<path transform="translate(206,940)" d="m0 0h23l5 4v22l-5 4h-23l-5-5v-20z" fill="#9FC8FE"/>
<path transform="translate(325,940)" d="m0 0h22l5 3 1 2v20l-5 5h-23l-5-4v-22z" fill="#9EC8FE"/>
<path transform="translate(1872,456)" d="m0 0h19l5 4v25l-4 4h-22l-4-5v-22l4-5z" fill="#A0C9FE"/>
<path transform="translate(1871,397)" d="m0 0h21l4 4v25l-5 4h-20l-4-3-1-3v-21l3-5z" fill="#9FC8FE"/>
<path transform="translate(265,940)" d="m0 0h24l4 4 1 2v18l-2 4-4 2h-22l-4-2-1-2v-22z" fill="#9FC8FD"/>
<path transform="translate(1870,516)" d="m0 0h22l4 4v24l-3 4-3 1h-18l-5-4-1-2v-22z" fill="#A0C9FE"/>
<path transform="translate(1565,984)" d="m0 0 2 3 4 15v6l-37 1h-40v-2l28-8 33-11z" fill="#FCFDFD"/>
<path transform="translate(1311,755)" d="m0 0h1l8 64 2 15v10l-4-5-10-21-5-16-1-6v-23-3l3-1 2-6 3-4z" fill="#74A0DD"/>
<path transform="translate(1154,223)" d="m0 0 4 1 3 7 4 18 1 9v23l-4 23-6 18-8 16-9 14-6 7-4-1 1-5 10-14 8-15 6-17 4-17 1-11v-18l-3-22-3-10v-5z" fill="#FAFCFD"/>
<path transform="translate(1560,162)" d="m0 0 5 1-1 6-13 13-7 8-8 8-7 8-16 17-4 2-5-5-14-18-5-7 1-5h5l18 24 4-2 12-13 29-31z" fill="#F37367"/>
<path transform="translate(1410,947)" d="m0 0 5 2 3 3-1 10-6 21-6 23-6 24-3 9h-6l1-11 5-21 12-53z" fill="#2F5D9B"/>
<path transform="translate(1590,519)" d="m0 0h12l13 3 13 7 17 12 8 4 22 5 11 4 12 7 8 9 8 16 3 11 1 6v15h-2l-1-13-5-16-7-12-4-5-5-4v-2l-4-2-10-7-13-5-20-3-10-5-13-13-10-6-11-3-18-1v-1z" fill="#D5E3F4"/>
<path transform="translate(1789,862)" d="m0 0h12l10 5 3 7-1 4-12 9-16 8-3 1 2-13 1-20z" fill="#FBFBFC"/>
<path transform="translate(1409,825)" d="m0 0 3 1-8 4-2 4 1 6 5 3 6-1 5-2h15l-1 9-6 26h-2l-10-16-9-12-9-10-7-8 4-2z" fill="#E2EEFB"/>
<path transform="translate(1734,959)" d="m0 0h31l25 1v8h-78v-8z" fill="#75A1DE"/>
<path transform="translate(1772,786)" d="m0 0 4 1 7 7-1 11-6 18-3 6-7-6-10-5 2-5z" fill="#FCFCFC"/>
<path transform="translate(547,750)" d="m0 0h6l2 9v26l-5 20-8 17-9 12-4 1-1-5 9-13 6-13 5-19v-26z" fill="#FBFCFD"/>
<path transform="translate(676,531)" d="m0 0 3 4 3 6 12 2-6 7-2 2 1 12-5-2-4-2-5 1-6 3h-2l1-12-7-7v-2l12-1 2-6z" fill="#98BAEA"/>
<path transform="translate(629,531)" d="m0 0 3 3 3 6v2l12 1-2 4-4 4h-2l2 13-6-2-4-2-5 1-5 3h-2l1-12-8-8v-1l12-2z" fill="#98BAEA"/>
<path transform="translate(769,531)" d="m0 0 3 4 3 6 12 2-6 7-2 3 1 11-9-4-5 1-7 3v-13l-7-7v-1l12-2z" fill="#98BAEA"/>
<path transform="translate(722,531)" d="m0 0 3 4 3 6 12 2-6 7-2 4 1 10-9-4-5 1-7 3v-13l-7-7v-1l12-1 2-6z" fill="#98BAEA"/>
<path transform="translate(583,531)" d="m0 0 3 4 3 6 12 2-6 7-1 1v13l-9-4-5 1-7 3 1-12-8-8v-1l12-2z" fill="#98BAEA"/>
<path transform="translate(1376,811)" d="m0 0 15 2 36 9v1l-18 3-9 1h-12l-12-11-2-4z" fill="#6891C9"/>
<path transform="translate(1347,696)" d="m0 0 16 2 9 3 2 1 1 4 3 1 12 1 7 5v1h-41l1-8-2-4-2-1-14-1 4-3z" fill="#E4EFFB"/>
<path transform="translate(675,375)" d="m0 0h8l6 6-2 4-3 1 3 15v5h-16l1-9 1-11-4-4z" fill="#D85343"/>
<path transform="translate(1777,866)" d="m0 0h1v16l-3 18-5 6-1 2v6l1 7-4 14h-1v-20l3-39 2-6z" fill="#FAFAFA"/>
<path transform="translate(1072,140)" d="m0 0 7 1 19 9 17 12 8 7-1 5-5-1-10-9-16-10-19-9-1-4z" fill="#FBFCFD"/>
<path transform="translate(1309,686)" d="m0 0 4 2 8 7 10 4v1h-52l4-2 18-8z" fill="#E4EEFA"/>
<path transform="translate(1712,974)" d="m0 0h77l1 4h-78z" fill="#7EA7E1"/>
<path transform="translate(1590,519)" d="m0 0h12l13 3 13 7 17 12 8 4 15 3 2 1v2h-9l-14-2-10-5-13-13-10-6-11-3-18-1v-1z" fill="#D8E5F4"/>
<path transform="translate(1511,526)" d="m0 0 6 2 12 3h13l1 5-28 10h-1z" fill="#EF9558"/>
<path transform="translate(908,514)" d="m0 0h2l3 6 8 2-2 4-3 4 1 7-6-2-6 1-4 1v-9l-5-6 9-2z" fill="#98BAEA"/>
<path transform="translate(443,513)" d="m0 0 3 4 1 4 9 1-5 6v9l-6-2-6 1-3 1v-9l-5-4v-2l9-1 2-6z" fill="#98BAEA"/>
<path transform="translate(409,513)" d="m0 0 3 4 1 4 9 1-5 6v9l-6-2-6 1-3 1v-9l-5-6 9-1 2-6z" fill="#98BAEA"/>
<path transform="translate(1010,513)" d="m0 0 3 4 1 4 9 1-5 6v9l-5-2-7 1-3 1v-9l-5-6 9-1 2-6z" fill="#98BAEA"/>
<path transform="translate(942,513)" d="m0 0 3 4 1 4 9 1-5 6v9l-5-2-6 1-4 1v-9l-5-6 9-1 2-6z" fill="#98BAEA"/>
<path transform="translate(341,513)" d="m0 0 3 4 1 4 9 1-5 6v9l-5-2-6 1-4 1v-9l-5-6 9-1 2-6z" fill="#98BAEA"/>
<path transform="translate(976,513)" d="m0 0 3 4 1 4 9 1-5 6v9l-5-2h-5l-5 2v-9l-5-6 9-1 2-6z" fill="#98BAEA"/>
<path transform="translate(375,513)" d="m0 0 3 4 1 4 9 1-5 6v9l-5-2-3-1-5 3h-2v-9l-5-6 9-1 2-6z" fill="#98BAEA"/>
<path transform="translate(1796,730)" d="m0 0h1l2 26-1 10-5 1-4-4v-15l2-10 3-1z" fill="#F9FAFB"/>
<path transform="translate(1736,837)" d="m0 0 5 2 2 2-1 9-9 20-3 9-3-1 3-10 1-7 1-21z" fill="#F8F9FA"/>
<path transform="translate(1566,778)" d="m0 0h2v27l-4 11-5 7-6 4-2-1 6-9 4-13 1-8v-11l3-4z" fill="#DEEBFA"/>
<path transform="translate(1021,131)" d="m0 0h8l2 2-1 4-1 1-19 1-11 2h-6l-1-4 2-2 16-3z" fill="#F7FAFD"/>
<path transform="translate(1438,734)" d="m0 0h24l2 4-57 2h-11l2-2 12-2z" fill="#6A93CB"/>
<path transform="translate(665,314)" d="m0 0h28l-2 5-8 6h-8l-6-4-4-4z" fill="#FCFAF9"/>
<path transform="translate(444,676)" d="m0 0h17l1 4-2 2-16 1-10 1-1-5z" fill="#F8FAFD"/>
<path transform="translate(1501,507)" d="m0 0 4 5 7 7 11 5 11 3 6 1-2 2-14-1-12-5-7-7-4-7z" fill="#E5794F"/>
<path transform="translate(1409,825)" d="m0 0 3 1-8 4-2 4 1 6 5 4-4 1-12-14-2-3z" fill="#D7E6F9"/>
<path transform="translate(672,388)" d="m0 0h1v9l-2 9h-94v-1h91v-3h2z" fill="#D5E5FB"/>
<path transform="translate(1755,824)" d="m0 0 5 2 7 8 2 5-2 6h-2l-9-16z" fill="#F3F6F8"/>
<path transform="translate(951,245)" d="m0 0 7 4 8 6v1h-18l2-10z" fill="#E6F1FC"/>
<path transform="translate(1736,837)" d="m0 0 5 2v3l-7 9-1 5h-1v-16z" fill="#E4EEF8"/>
<path transform="translate(1767,910)" d="m0 0 2 4 1 7-4 14h-1v-20z" fill="#F3F5F7"/>
<path transform="translate(489,681)" d="m0 0 5 1 5 2v7l-10-4-1-5z" fill="#F7FAFD"/>
<path transform="translate(643,363)" d="m0 0 4 4 12 21 1 3 3 1-4 2-12-22-4-7z" fill="#F2E5DD"/>
<path transform="translate(1828,897)" d="m0 0h2l-1 6-6 9-7 6 2-5 7-11z" fill="#EDF2F6"/>
<path transform="translate(953,369)" d="m0 0h17l-5 5h-7z" fill="#FBF8F7"/>
<path transform="translate(386,369)" d="m0 0h17l-4 4-2 1h-6z" fill="#FCF9F8"/>
<path transform="translate(669,383)" d="m0 0 5 3v5l-2 2-2 9-1-4 1-10-6 2 3-5z" fill="#EFE4DF"/>
<path transform="translate(689,381)" d="m0 0 4 5 4 3-2 4-6-4-3-1 1-4z" fill="#F0E4DE"/>
<path transform="translate(711,363)" d="m0 0 3 1-13 20-1-2 10-18z" fill="#F2E5DD"/>
<path transform="translate(1773,848)" d="m0 0 2 3 1 8-6 2z" fill="#F4F5F6"/>
<path transform="translate(1567,678)" d="m0 0 2 3-1 9-3 12h-1l1-12z" fill="#D7DFEA"/>
<path transform="translate(684,386)" d="m0 0h2l1 2 2 17-2 1-3-14z" fill="#D6E2F6"/>
<path transform="translate(1732,866)" d="m0 0 1 4-3 9-3-1 3-10z" fill="#F2F2F2"/>
</svg>
