<?xml version="1.0" encoding="UTF-8"?>
<svg version="1.1" viewBox="0 0 2048 1170" width="1280" height="1280" xmlns="http://www.w3.org/2000/svg">
<path transform="translate(0)" d="m0 0h2048v1170h-2048z" fill="#F9FAFD"/>
<path transform="translate(768,135)" d="m0 0h140l7 9v19h339l9 3 10 10 2 3v11h58l4 2 2 3v91l-1 3-5 3-104 1-7 8-10 14-4 4-4-1v-23h-10l-5-3-1-2v-21l-152 1-4 4-1 122 17-3h221v-99h1v99l245 1 13 4 12 7 7 6 8 10 6 13 2 11v15l-3 12-7 14-9 10-9 7-10 5-11 3h-19v20l-3 14-2 2-4-9-5-3 2-6 1-2v-10l-2-3h-6l-4 5-2 11-3-3-1-4v-12l-8 4-9 2h-22l-4-4-148-1v149l-4 6-6 3h-71l8 20 20 46v3h89l1-4 12-9 7-5v-5l8-3 48-14 33-11 5-3 11-18 14-25 12-22 7-12 12-11 11-9 8-7 10 5 14 12 11 12 12 17 9 16 10 21 11 33 7 30 5 32 1 9v11l-1 2 3 10 3-7 9-40 5-20 4-8 2-2h8l6 4 8 9 6 13 4 14 2 14v45l-3 26-5 22-5 12-6 10-9 8-13 5-17 4 4 15 25 103 14 59 1 2 265 1-1 4h-1746l-1-3 1-1h266l-6-18-15-50 1-4 1-1 25-1-10-13-11-13-9-11-10-11-7-8-14-9-11-7-5-4-3-4 1-3 5 6 15 10 11 7 9 8 9 11 10 11 11 14 12 16 13 1v-111l1-20h2v25l-1 65v41h9l2-4 10-9 17-12 28-16 27-16 28-16 4-1-5 5-23 13-48 28-18 11-11 8-8 7-1 2h26l2 2-2 10-17 57-2 4 612-1 16-82 34-175 12-63 1-2h-84l-3-2v-6l2-2h167l-24-56-11-25h-203l-6 20-8 18-8 14-9 12-12 14-11 10-15 11-18 10-20 8-20 5-14 2h-31l-19-3-18-5-7-3 1 5-6 12-10 17-15 26-14 24-45 78-14 24-13 22-4 3h-6l-28-16-8-6v-8l13-23 14-24 30-52 14-24 16-28 8-13 6-11 8-14 6-10 5-5v-2l-9-7-7-7-9-11-9-13-9-16-8-20-3-11v-4h-126l-8-4-5-6-2-7v-232l2-1 1 236 4 7 4 3 3 1 126 1-3-17v-31l2-16 6-22 10-22 10-16 10-13 11-12 11-9 13-10 11-6 17-8v-208l-3-3h-190l-4 4-1 36h-33v-129l2-5 7-6h221v-5l-223 1-7 4-4 7-1 134h70l5 4v93l-4 4-2 1h-6l-1 26-4 1-14-18-6-8-105-1-5-4v-94l3-4h67v-133l4-8 6-5 6-2h221v-23z" fill="#7DBFFD"/>
<path transform="translate(768,135)" d="m0 0h140l7 9v19h339l9 3 10 10 2 3v11h58l4 2 2 3v91l-1 3-5 3-104 1-7 8-10 14-4 4-4-1v-23h-10l-5-3-1-2v-21l-152 1-4 4-1 122 17-3h221v-99h1v99l245 1 13 4 12 7 7 6 8 10 6 13 2 11v15l-3 12-7 14-9 10-9 7-10 5-11 3h-19v20l-3 14-2 2-4-9-5-3 2-6 1-2v-10l-2-3h-6l-4 5-2 11-3-3-1-4v-12l-8 4-9 2h-22l-4-4-148-1v149l-4 6-6 3h-71l-1 2-2-7 64-1 7-3 5-5 2-5v-3l-3 8-7 6-2 1h-67l-6-12-13-31-3-7h-5l1 6 18 42v2h-202l2-15v-34l-3-18-6-21-7-16-9-16-8-11-5-7-5-5-13-12-15-11-18-10-17-7-17-5-18-3h-33l-19 3-21 6h-2l-1-208-3-3h-190l-4 4-1 36h-33v-129l2-5 7-6h221v-5l-223 1-7 4-4 7-1 134h70l5 4v93l-4 4-2 1h-6l-1 26-4 1-14-18-6-8-105-1-5-4v-94l3-4h67v-133l4-8 6-5 6-2h221v-23z" fill="#D7E9FC"/>
<path transform="translate(980,665)" d="m0 0h203l7 14 23 54 5 12v2l-167 1-1 1v6l2 1 84 1-4 23-31 160-26 135-2 5h-612l3-11 17-57-1-4-26-1 2-4 11-9 10-7 29-17 26-15 27-16 8-5-5 2-26 15-24 14-26 15-15 10-10 8-8 7-1 2h-9l-1-12v-29l1-65 1-25h-2l-1 131h-13l-8-10-8-11-12-14-9-11-11-12-15-10-11-7-6-5-2-3 2 4 5 5 13 8 13 9 14 15 9 11 11 13 13 17v1l-26 1-1 4 16 53 4 13v2h-265v-1l89-1-4-33-2-25-1-23v-44l2-38 4-39 6-40 5-25 2-2 32-7 34-6 32-4 24-2 20-1h55l44 3 38 5 38 7 33 8 31 9 36 12 2 4-16 28-14 24-30 52-11 19v8l9 6 26 15h6l5-5 16-28 14-24 30-52 14-24 30-52 10-17 1-8 10 3 20 5 14 2h31l19-3 21-6 20-9 15-9 14-11 12-11 9-11 10-14 10-19 7-19 3-11z" fill="#D7E9FC"/>
<path transform="translate(1722,588)" d="m0 0h43l22 2 9 13 12 21 10 23 9 27 6 24 5 27 4 31 2 25 1 25v26l-2 39-4 36-6 36-7 31-8 30-12 36-11 29-4 9 107 1v1h-263l-2-3-42-175v-2l23-7 10-5 8-9 7-15 5-19 3-21 1-11v-45l-3-19-6-16-6-10-8-7-2-1h-8l-4 7-4 13-10 45-4 12-2-1-3-11 1-1v-11l-4-30-6-29-7-25-8-22-8-17 2-4 18-10 25-12 28-11 25-8 30-7 27-4z" fill="#D8E9FC"/>
<path transform="translate(1143,757)" d="m0 0h285l8 42-8 4-30 12-20 9-19 10-8 7-4 12-3 18-2 22-1 20v126l27-1 23-90 2-1 11 51 10 41v2l25-2v-16l5-105 1-13 5-2h6l12 60 19 99v8l-3 10h-40l-2-5-3-20-6 1h-13l-5-1-29 15-7 5-3 5h-6l-2-7-2-13v-6l-7 2h-13l-5-1-27 14-8 5-4 6h-220l-1-2 30-155z" fill="#D7E9FC"/>
<path transform="translate(804,269)" d="m0 0h190l4 4 1 153-3 7-3 12v17l5 15 7 12 9 9 11 7 16 5 6 1 184 1-1 106-3 3h-55l-4-8h-5l1 6 18 42v2h-202l2-15v-34l-3-18-6-21-7-16-9-16-8-11-5-7-5-5-13-12-15-11-18-10-17-7-17-5-18-3h-42v-198z" fill="#F9FAFD"/>
<path transform="translate(541,165)" d="m0 0h223v5l-221 1-7 6-1 4-1 129h33v-36l5-5h190l4 4v208l-16 8-9 5-11 7-13 11-8 7-7 8-9 12-8 13-8 16-6 15-4 16-2 16v31l2 17h-126l-6-3-5-6-1-3-1-235-63-1-2-2h104l12 15 8 11h3l1-24 1-2 8-2 3-3v-93l-4-3-70-1v-134l5-8z" fill="#F9FAFD"/>
<path transform="translate(995,670)" d="m0 0h191l24 56 8 19v2l-167 1-1 1v6l2 1 84 1-4 23-31 160-2 4h-14l-44-3-35-4-38-6-35-7-44-11-39-12-43-15-49-19-15-6 1-4 13-23 14-24 6-11 1-5 5 1 18 5 16 3 14 1h10l21-2 22-5 18-7 16-8 12-8 14-11 12-12 13-17 11-19 8-20 5-19z" fill="#F9FAFD"/>
<path transform="translate(812,492)" d="m0 0h24l19 3 16 5 16 7 14 8 13 10 15 15v2h2l11 16 9 17 6 17 4 18 1 8v25l-3 19-5 1v2l4 1-4 12-5 12-8 15-9 12-9 10-10 10-15 11-20 11-19 7-20 4-10 1h-16l-22-3-17-5-23-11-14-10-14-12-11-13-9-14-8-16-6-18-3-14-1-9v-27l3-19 6-20 8-17 10-15 8-10 14-14 15-11 19-10 21-7 14-3z" fill="#D8E9FC"/>
<path transform="translate(1041,397)" d="m0 0h473l10 3 12 6 11 10 7 11 4 9 2 10v12l-3 13-7 14-8 9-10 7-11 5-9 2h-17l-2-7-4-11-7-9-9-5-9-1-14 3-14 6-8 6-5 5-3 5v8h-377l-12-3-13-7-8-7-9-13-4-10-2-10v-11l4-16 6-11 9-10 14-9z" fill="#F8FAFD"/>
<path transform="translate(768,135)" d="m0 0h140l4 5v91l-2 4-4 2h-7v26l-4 1-12-15-7-9-1-3h-104l-5-3-2-4v-6h-230v-43l2-5 7-6h221v-5l-223 1-7 4-4 7-1 134h70l5 4v93l-4 4-2 1h-6l-1 26-4 1-14-18-6-8-105-1-5-4v-94l3-4h67v-133l4-8 6-5 6-2h221v-23z" fill="#0F274F"/>
<path transform="translate(528,415)" d="m0 0h1l1 236 4 7 4 3 3 1 126 1-3-17v-31l2-16 6-22 10-22 10-16 10-13 11-12 11-9 13-10 11-6 17-8 20-6 15-3 8-1h33l22 4 21 7 17 8 16 10 13 11 10 9 2 4 3 1 11 15 9 15 8 17 6 19 3 15 1 8v34l-2 13-1 2h202l-19-44-1-6 1-1h5l4 8 18 42h67l6-4 3-3 2-7 1-135h1v138l-4 8-7 5-4 1h-64l10 22 21 49v3h89l1-4 12-9 6-4 2 1-16 12-3 4h40l1 1v5l-1 1h-135l-7-15-23-54-5-11h-203l-6 20-8 18-8 14-9 12-12 14-11 10-15 11-18 10-20 8-20 5-14 2h-31l-19-3-18-5-7-3 1 5-6 12-10 17-15 26-14 24-45 78-14 24-13 22-4 3h-6l-28-16-8-6v-8l13-23 14-24 30-52 14-24 16-28 8-13 6-11 8-14 6-10 5-5v-2l-9-7-7-7-9-11-9-13-9-16-8-20-3-11v-4h-126l-8-4-5-6-2-7v-232zm284 77-19 3-20 6-19 9-12 8-11 9-14 14-12 17-9 17-7 21-3 14-1 9v27l3 19 6 20 8 16 8 13 8 10 9 10 11 9 15 10 21 10 17 5 22 3h16l22-3 17-5 18-8 18-11 13-11 13-13 11-15 8-15 6-14 3-11h-4v-2l5-1 3-19v-25l-3-19-5-16-7-16-8-14-8-11h-2l-2-4-15-15-16-11-17-9-17-6-18-4-8-1z" fill="#14386A"/>
<path transform="translate(1500,581)" d="m0 0 10 5 14 12 11 12 12 17 9 16 10 21 11 33 7 30 5 32 1 9v11l-1 2 3 10-1 7-7 13-10 13-9 10-15 15-14 11-13 10-19 12-21 12-6 3-11 3h-3l-11-56-9-47 9-4 25-9 1-8 1-19 41-1 2-2v-5l-3-2-43-1-2-8h-58l-55-2-3-3-3-10v-3l-17-1-4 2-2 2-1-5 1-3 52-15 36-12 5-3 11-18 14-25 12-22 7-12 12-11 11-9z" fill="#3B94F8"/>
<path transform="translate(1144,758)" d="m0 0h264l-6 7-22 22-6 5-13 13-7 8-35 35-8 7-11 11-8 7-14 12-13 10-17 12-21 12-19 9-21 7-22 5-23 3-14 1h-20l1-11 32-165 2-7z" fill="#F9FAFD"/>
<path transform="translate(915,163)" d="m0 0h339l9 3 10 10 2 3v11h58l4 2 2 3v91l-1 3-5 3-104 1-7 8-10 14-4 4-4-1v-26h-8l-5-5-1-90-1 3-1 24h-273v-54l347-1-5-3-342-1z" fill="#0F2750"/>
<path transform="translate(1036,269)" d="m0 0h152l1 21 2 3 13 2 1 23 4-1 9-11 8-11 3-3h103l-1 2-3 1h-53v98l-44 1h-183l-12 2h-5v-122z" fill="#F9FAFD"/>
<path transform="translate(1031,509)" d="m0 0 10 1 6 1 184 1-1 106-3 3h-55l-4-8h-5v8h-128l-4-4z" fill="#F9FAFD"/>
<path transform="translate(1433,800)" d="m0 0h3l19 98-1 5-8 2-2 34-5 100-14 2h-11l-5-18-11-47-6-28-23 90-1 1h-27l-1-20v-106l2-32 3-23 4-15 7-8 14-8 23-11z" fill="#0F274F"/>
<path transform="translate(442,876)" d="m0 0h2v25l-1 65v41h9l2-4 10-9 17-12 28-16 27-16 28-16 4-1-5 5-23 13-48 28-18 11-11 8-8 7-1 2h26l2 2-2 10-17 57-2 4 621-1h220l5-7 29-15 5-3 5 1h13l7-1 4 25h6l4-6 10-6 25-13 5 1h13l6-1 2 7 3 18 40 1 2-10 2-1 1 10 141 1-16-53-22-72-15-49v-3l14-3 4 15 25 103 14 59 1 2 265 1-1 4h-1746l-1-3 1-1h266l-6-18-15-50 1-4 1-1 25-1-10-13-11-13-9-11-10-11-7-8-14-9-11-7-5-4-3-4 1-3 5 6 15 10 11 7 9 8 9 11 10 11 11 14 12 16 13 1v-111z" fill="#0F274F"/>
<path transform="translate(1269,294)" d="m0 0h1v99l245 1 13 4 12 7 7 6 8 10 6 13 2 11v15l-3 12-7 14-9 10-9 7-10 5-11 3h-19v20l-3 14-2 2-4-9-5-3 2-6 1-2v-10l-2-3h-6l-4 5-2 11-3-3-1-4v-12l-8 4-9 2h-22l-4-4-148-1v149l-4 6-6 3h-71l-1 2-2-7 64-1 7-3 5-5 2-5v-3l-3 8-7 6-2 1h-67l-6-12-12-28v-2l55-1 2-2 1-105-183-1-17-4-12-6-12-11-7-10-5-12-2-7v-17l4-16 8-13 11-11 14-8 11-3 15-1h214zm-228 103-15 5-13 9-8 9-7 14-3 13v11l4 16 7 12 6 7 11 8 11 5 9 2h377v-8l5-8 8-6 12-6 13-4 9-1 8 2 9 6 7 11 3 13 1 1h17l11-3 14-7 9-8 6-8 6-14 2-10v-12l-3-13-7-13-10-11-9-6-13-5-4-1z" fill="#CEE4FC"/>
<path transform="translate(1615,714)" d="m0 0h8l6 4 8 9 6 13 4 14 2 14v45l-3 26-5 22-5 12-6 10-9 8-13 5-23 6-42 6h-3l-3 12-22 72-20 66-2-2-1-11 29-120 3-15-15 1h-29l-5-4 1-7 4-5 17-10 20-12 18-13 13-11 8-7 15-15 10-13 8-14 6-16 9-40 5-20 4-8z" fill="#7EBFFD"/>
<path transform="translate(1572,903)" d="m0 0h5l18 58 17 56 18 59v4h-132l-2-6-2-10 1-9 17-56 22-72 6-19 11-2z" fill="#D6E8FC"/>
<path transform="translate(541,165)" d="m0 0h223v5l-221 1-7 6-1 4-1 129h45v-23l2-2h74l2 2v95l-1 2h-48v10h46l2 2v96l-2 2h-73l-3-2v-64l4 4 5 7h3l1-24 1-2 8-2 3-3v-93l-4-3-70-1v-134l5-8z" fill="#D7E9FD"/>
<path transform="translate(463,312)" d="m0 0h64v3h2v-3h69l4 4v91l-4 4h-9l1 4v23l-4-2-11-14-7-10-105-1-4-2-1-2v-91l3-3z" fill="#3C94F8"/>
<path transform="translate(770,136)" d="m0 0h136l4 4v91l-2 3-3 1h-8l1 4v22l-3 1-12-16-7-9v-2h-105l-4-2-1-2v-7h3v-54h-3v-5h3v-2h-3v-23z" fill="#3B94F8"/>
<path transform="translate(1275,192)" d="m0 0h59l3 3v92l-4 3-105 1-21 27-2-1v-22l1-5h-9l-4-4v-90l4-2h78z" fill="#3B94F8"/>
<path transform="translate(999,481)" d="m0 0 4 5 9 10 8 6 10 5 3 2h-2l1 108 3 3 128 1 1-2 18 42v2h-202l2-15v-34l-3-18-6-21-7-16-9-16-8-11-4-6h37l3 3v47l-1 5 6 16 5 21h2l1-136z" fill="#D7E9FC"/>
<path transform="translate(463,413)" d="m0 0h104l2 3h-2l1 201 1 3 94 1 1-4 1 29 2 17h-126l-6-3-5-6-1-3-1-235-63-1z" fill="#D8E9FC"/>
<path transform="translate(815,571)" d="m0 0h17l15 4 12 7 9 8 7 10 5 10 3 12v17l-3 12-6 12-8 10-8 7-14 7-11 3h-19l-11-3-14-7-5-4-7-8-6-9-5-12-2-11v-11l2-11 4-11 7-10 6-7 10-7 10-5z" fill="#7FC0FE"/>
<path transform="translate(1587,780)" d="m0 0 2 1 3 10-1 7-7 13-10 13-9 10-15 15-14 11-13 10-19 12-21 12-6 3-11 3h-3l-11-56-9-47 9-4 25-9 1 3 37 3h19l23-2 19-4z" fill="#0F274F"/>
<path transform="translate(1048,281)" d="m0 0h87l2 2v110l-9 1h-87v-1l5-1v-109z" fill="#D7E9FC"/>
<path transform="translate(579,504)" d="m0 0h75l1 1v97l-1 1h-75l-2-3v-94z" fill="#D9EAFD"/>
<path transform="translate(528,415)" d="m0 0h1l1 236 4 7 4 3 3 1 126 1-3-17v-31l2-16 6-22 10-22 10-16 10-13 11-12 11-9 13-10 11-6 17-8 20-6 15-3 8-1h33l22 4 21 7 17 8 16 10 13 11 10 9 2 4-8-6-15-10-19-10-24-8-14-3-8-1h-35l-18 3-20 6-16 7-16 9-16 12-13 12-10 12-10 15-10 19-8 24-4 21-1 21 2 23 5 21 7 19 11 21 4 5-1 2-9-10-10-15-8-15-7-18-3-11v-4h-126l-8-4-5-6-2-7v-232z" fill="#0F2851"/>
<path transform="translate(1269,294)" d="m0 0h1v99l245 1 13 4 12 7 7 6 8 10 6 13 2 11v15l-3 12-7 14-9 10-9 7-10 5-11 3h-19v20l-3 14-2 2-4-9-5-3 2-6 1-2v-10l-2-3h-6l-4 5-2 11-3-3-1-4v-12l-8 4-9 2h-22l-5-5-381-1-16-5-11-7-10-10-8-14-4-13v-17l4-16 8-13 11-11 14-8 11-3 15-1h214zm-228 103-15 5-13 9-8 9-7 14-3 13v11l4 16 7 12 6 7 11 8 11 5 9 2h377v-8l5-8 8-6 12-6 13-4 9-1 8 2 9 6 7 11 3 13 1 1h17l11-3 14-7 9-8 6-8 6-14 2-10v-12l-3-13-7-13-10-11-9-6-13-5-4-1z" fill="#102A53"/>
<path transform="translate(817,285)" d="m0 0h75l2 3v74l-2 2h-76l-1-1v-77z" fill="#D9EAFD"/>
<path transform="translate(1450,903)" d="m0 0h6l12 60 19 99v8l-3 10h-40l-2-5-3-20-6 1h-13l-2-1-2-14 18-2h5v-16l5-105 1-13z" fill="#D6E8FC"/>
<path transform="translate(938,551)" d="m0 0 5 5 8 10 9 15 8 19 5 19 2 15v21l-3 20-5 17-8 18-10 16-11 13-11 11-15 11-16 9-18 7-23 5-9 1h-19l-21-3-17-5-16-7-16-10-8-6 2-1 23 11 17 5 22 3h16l22-3 17-5 18-8 18-11 13-11 12-12 11-15 8-15 6-14 3-10-3-1v-2l4-1 3-19v-25l-3-19-5-16-7-16-8-14z" fill="#0F274F"/>
<path transform="translate(607,394)" d="m0 0h47l2 2v96l-2 2h-73l-3-2v-64l4 4 5 7 4 2v4l52-1v-40l-34-1-1 6h-1z" fill="#D8E9FC"/>
<path transform="translate(1229,292)" d="m0 0h103l-1 2-3 1h-53v98l-44 1h-94v-1h93v-98l-4 3-2-1z" fill="#D4E7FC"/>
<path transform="translate(819,597)" d="m0 0h9l9 4 7 8 2 5v11l-4 8-6 7 10 5 9 8 7 14 1 9-10 7-12 5-8 2h-19l-11-3-14-7-5-4 2-11 5-10 6-7 9-6 5-2-6-7-4-9v-9l5-10 6-5z" fill="#3B94F8"/>
<path transform="translate(721,757)" d="m0 0h3l4 5 9 7-5 4-45 78-14 24-30 52-28 48-5-1-8-6v-8l13-23 14-24 30-52 14-24 16-28 8-13 6-11 8-14 6-10z" fill="#0F274F"/>
<path transform="translate(1477,896)" d="m0 0 3 1-4 5v5l4 3h29l15-1 1 3-27 112-5 21-2 2-14-71-14-73v-3z" fill="#D7E9FC"/>
<path transform="translate(1419,229)" d="m0 0h9l8 4 6 7 2 8 6-9 6-4 3-1h10l8 4 6 7 2 6v7l-4 12-7 10-7 7-14 8-13 4-5-1-11-7-8-7-9-13-4-13v-14l4-8 5-4z" fill="#7FC0FE"/>
<path transform="translate(1464,511)" d="m0 0h2l2 16 1 2 2-10 5-6h6l3 4v10l-4 8 4 1 4 5 10 40-2 4-11 9-10 9-3 1-2-15-1-11h-3-14l-8-4-7-8-4-10-4-23-2-9v-7l21-1 11-3z" fill="#F5BBB0"/>
<path transform="translate(1392,947)" d="m0 0h1l11 51 10 41v2h2l2 8v6l-5 1-27 14-7 5-3 5h-6l-2-7-2-13v-6l-4 1 3-16 3-1 23-90z" fill="#D5E8FC"/>
<path transform="translate(1055,290)" d="m0 0h73v39h-73z" fill="#FAFBFE"/>
<path transform="translate(1055,334)" d="m0 0h73v39h-72l-1-1z" fill="#FAFBFE"/>
<path transform="translate(593,511)" d="m0 0h49l2 2v40l-1 1h-52v-42z" fill="#FAFBFE"/>
<path transform="translate(1269,513)" d="m0 0h1v138l-4 8-7 5-4 1h-64l10 22 21 49v3h89l1-4 12-9 6-4 2 1-16 12-3 4h40l1 1v5l-1 1h-135l-7-15-23-54-5-11-4-10-16-37-1-6 1-1h5l4 8 18 42h67l6-4 3-3 2-7z" fill="#0F2953"/>
<path transform="translate(608,402)" d="m0 0 35 1 1 1v40l-1 1h-52l-1-6 1-24 12-1 3-3z" fill="#F7F9FD"/>
<path transform="translate(815,376)" d="m0 0h169l1 1v10h-170z" fill="#D9EAFD"/>
<path transform="translate(1338,718)" d="m0 0h8l9 2 4 13v2l57 2h58l2 6v4h-124l1-7-40-1 2-4 10-8 6-4h2l2-4z" fill="#E9F2FD"/>
<path transform="translate(815,393)" d="m0 0h169l1 1v9l-4 1h-162l-4-1z" fill="#D9EAFD"/>
<path transform="translate(541,165)" d="m0 0h223v5l-221 1-7 6-1 4-1 129h-5v-133l5-8z" fill="#F4F7FD"/>
<path transform="translate(591,294)" d="m0 0h52l1 1v40l-1 1h-35l-1-15-6-8-2-1-9-1z" fill="#F9FAFD"/>
<path transform="translate(915,165)" d="m0 0h342l6 4v1h-348z" fill="#F2F7FD"/>
<path transform="translate(518,344)" d="m0 0h14l8 4 5 8 1 5v8l-3 9-6 7-9 3-10-1-7-4-4-5-2-7v-11l4-9 7-6z" fill="#3B94F8"/>
<path transform="translate(1255,223)" d="m0 0h12l8 4 5 6 2 8v7l-3 9-6 7-7 3h-10l-8-4-5-6-2-6v-12l4-9 7-6z" fill="#3B94F8"/>
<path transform="translate(826,168)" d="m0 0h14l6 3 6 7 2 9-1 10-4 8-6 5-7 2-11-1-6-4-4-5-2-6v-13l5-10z" fill="#3B94F8"/>
<path transform="translate(1538,908)" d="m0 0h2l-3 12-22 72-20 66-2-2-1-11 29-120 4-15 2-1z" fill="#0F2851"/>
<path transform="translate(344,923)" d="m0 0 4 5 5 5 13 8 13 9 14 15 9 11 11 13 4 6-10 2h-9l-6-3-3-5-1-10-2-2-13-1-6-3-3-4-1-4-1-13-2-4-11-4-5-6-2-9z" fill="#6BB498"/>
<path transform="translate(560,931)" d="m0 0 5 1-1 3-28 16-24 14-26 15-15 10-2-1 1-9 4-10 5-5 2-1h6l3 2h5l3-16 4-4 3-1h9l7 1 4-4 5-8 3-2h8l7 2h6z" fill="#6BB498"/>
<path transform="translate(1435,757)" d="m0 0h43l1 3v16l-1 8-12 5-20 7-4-1-7-36z" fill="#D7E9FC"/>
<path transform="translate(566,935)" d="m0 0 2 1v8l-6 5-12 5-4 6-4 9-5 3-12 1-6 4-9 10-2 1-12 1-8 6-3 2h-7l-7-5 5-4 16-10 52-30z" fill="#6BB498"/>
<path transform="translate(441,875)" d="m0 0 2 1-1 20-1 70-11-2-6-5-1-2v-6l6-8-2-5-7-7-2-5 1-7 9-8 1-7-2-4 1-5 7-4v-12l3-3z" fill="#6BB498"/>
<path transform="translate(347,922)" d="m0 0h9l6 4 6 8 3 1 19 1 6 3 4 5 3 15 4 4 16 5 3 3 1 6-2 8-6 9-5-5-8-10-11-13-9-10-6-7-15-10-11-7-6-5-2-4z" fill="#6BB498"/>
<path transform="translate(1288,224)" d="m0 0h23l6 4 1 2v9l-2 3h-2v2l4 2 2 3v9l-5 6-6 2h-21z" fill="#102B55"/>
<path transform="translate(1270,512)" d="m0 0h5v149l-4 6-6 3h-71l-1 2-2-7 64-1 7-3 5-5 2-5z" fill="#D7E9FC"/>
<path transform="translate(552,345)" d="m0 0h24l6 5 1 6-2 5-3 4 4 1 3 7-2 8-4 4-3 1h-24z" fill="#102B55"/>
<path transform="translate(860,169)" d="m0 0h24l5 4 1 2v8l-4 6 4 2 2 3v9l-4 5-4 2h-24z" fill="#102A54"/>
<path transform="translate(815,444)" d="m0 0h169l1 1v5l-4 1h-162l-4-1z" fill="#D9EAFD"/>
<path transform="translate(444,876)" d="m0 0 4 2 2 6 2 7 6 7v8l-2 7 1 9 4 7v9l-3 6 1 8 1 7-3 5-6 2h-8v-65z" fill="#6BB497"/>
<path transform="translate(533,168)" d="m0 0 2 1-5 8-1 134h70l5 4v93l-4 4-2 1h-6l-1 26-4 1-14-18-6-8-105-1-5-4v-94l3-4h67v-133l4-8zm-70 144-4 2-1 2v91l2 3 3 1 105 1 8 11 10 13 4 2v-23l-1-4h9l4-4v-91l-4-4h-69v3h-2v-3z" fill="#112D59"/>
<path transform="translate(815,456)" d="m0 0h169l1 1v5h-170z" fill="#D9EAFD"/>
<path transform="translate(815,433)" d="m0 0h170v5l-1 1h-168l-1-1z" fill="#D9EAFD"/>
<path transform="translate(530,416)" d="m0 0h4v241h-2l-2-3z" fill="#F9FAFD"/>
<path transform="translate(815,468)" d="m0 0h169l1 1v5l-126 1-18-3-32-1v-1h6z" fill="#D5E7FC"/>
<path transform="translate(912,141)" d="m0 0 3 3v80h273v-24l2-4h1l1 91 4 4 8 1v3h-10l-5-3-1-2v-65h-273v10l-4 4-12 1v-3l11-2 1-4z" fill="#62ADFB"/>
<path transform="translate(815,410)" d="m0 0h89v10h-89z" fill="#D9EAFD"/>
<path transform="translate(1203,295)" d="m0 0h1l1 23 4-1 3-2 3 2v3l-4 1h-56l-2-1 1-4h49v-4h-49l-1-4 3-1h46l1-4h-49l-1-4h50z" fill="#D9EAFD"/>
<path transform="translate(768,135)" d="m0 0h140l4 5v91l-2 4-4 2h-7v26l-4 1-12-15-7-9-1-3h-104l-2-2h107l14 19 5 6v2l2-1v-26l11-2 1-2v-93l-3-1h-138l-1 3-1 23-2 1v-24z" fill="#112F5C"/>
<path transform="translate(826,168)" d="m0 0h14l6 3 6 7 2 9-1 10-4 8-6 5-7 2-11-1-6-4-4-5-2-6v-13l5-10zm3 5-5 3-4 5-1 3v11l4 8 5 3h11l6-5 2-5 1-8-2-8-4-5-4-2z" fill="#102A54"/>
<path transform="translate(518,344)" d="m0 0h14l8 4 5 8 1 5v8l-3 9-6 7-9 3-10-1-7-4-4-5-2-7v-11l4-9 7-6zm3 5-6 4-3 4-1 4v10l4 8 5 3h11l6-5 3-9-1-10-4-6-5-3z" fill="#102A54"/>
<path transform="translate(1255,223)" d="m0 0h12l8 4 5 6 2 8v7l-3 9-6 7-7 3h-10l-8-4-5-6-2-6v-12l4-9 7-6zm3 5-6 3-4 6-1 3v10l3 7 5 4 10 1 6-3 4-7 1-11-3-8-5-4-3-1z" fill="#102A54"/>
<path transform="translate(536,662)" d="m0 0 6 2 126 1 1 7-1-2h-124l-6-4z" fill="#D7E9FC"/>
<path transform="translate(1028,401)" d="m0 0h3l-1 5-9 7-7 7-7 12-3 9-1 5v18l3 11 6 12 8 10h-3l-7-6-9-13-4-10-2-10v-11l4-16 6-11 9-10z" fill="#CFE5FC"/>
<path transform="translate(879,480)" d="m0 0h106v5l-1 1-91 1-14-6z" fill="#D7E9FC"/>
<path transform="translate(1338,718)" d="m0 0h8l9 2 3 12-12 6h-33l5-6 13-9h2l2-4z" fill="#FEC1B2"/>
<path transform="translate(1093,378)" d="m0 0h35v16h-35z" fill="#EEF4FD"/>
<path transform="translate(1467,737)" d="m0 0h7l2 6v4h-124l2-2h68l5-5-4-2z" fill="#D7E9FC"/>
<path transform="translate(1332,190)" d="m0 0 5 2 2 3v91l-1 3-5 3-104 1-7 8-10 14-3 3-2-1 21-27 105-1 3-2v-94l-61-1v-1z" fill="#143869"/>
<path transform="translate(600,312)" d="m0 0 4 3v93l-4 4-2 1h-6l-1 26-4 1-14-18-6-8-105-1-1-2h107l9 12 10 13 3 2-1-27 9-1 3-3v-91z" fill="#112D59"/>
<path transform="translate(1055,378)" d="m0 0h34v15h-34z" fill="#FAFBFE"/>
<path transform="translate(770,136)" d="m0 0h136l2 3-134 1-4 3-1 20h-3v-23z" fill="#C2DDFC"/>
<path transform="translate(1270,295)" d="m0 0h5v98h-5z" fill="#D9EAFD"/>
<path transform="translate(463,312)" d="m0 0h64v3l-61 1-4 4-1 89h-2l-1-2v-91l3-3z" fill="#D9E9FC"/>
<path transform="translate(543,163)" d="m0 0h226v2h-3l-1 5h-1v-5l-223 1-6 3v-3z" fill="#14386A"/>
<path transform="translate(904,492)" d="m0 0h81v5l-1 1-70 1-10-6z" fill="#D7E9FC"/>
<path transform="translate(463,413)" d="m0 0h104l1 2-38 1v235h-1l-1-235-63-1z" fill="#D8E9FC"/>
<path transform="translate(1048,580)" d="m0 0h87l2 3-2 2h-87l-1-4z" fill="#D9EAFD"/>
<path transform="translate(1048,537)" d="m0 0h87l2 3-2 2h-87l-1-4z" fill="#D9EAFD"/>
<path transform="translate(1049,563)" d="m0 0h86l2 3-2 2h-87l-1-4z" fill="#D9EAFD"/>
<path transform="translate(1049,528)" d="m0 0h83l5 2-1 3h-88l-1-4z" fill="#D9EAFD"/>
<path transform="translate(1469,619)" d="m0 0h2v54l1 7 16-37 9-23 2-1-1 6-17 41-11 23-6 5-15 5-34 8-54 10-9 1v-2l54-10 37-8 17-5 7-4 1-2v-54z" fill="#123261"/>
<path transform="translate(1275,192)" d="m0 0h59l3 3v92l-3 2-1-91-5-3-53-1z" fill="#E9F2FD"/>
<path transform="translate(1229,224)" d="m0 0h6v33l-3 7-6 3h-7l-6-3-2-3v-9h5l2 8 7 1 3-3z" fill="#102B56"/>
<path transform="translate(1229,292)" d="m0 0h103l-1 2-3 1h-58l-1 98h-1v-99h-40z" fill="#469BF8"/>
<path transform="translate(1047,598)" d="m0 0h89v4h-89z" fill="#D9EAFD"/>
<path transform="translate(1047,572)" d="m0 0h89v4h-89z" fill="#D9EAFD"/>
<path transform="translate(1047,555)" d="m0 0h89v4h-89z" fill="#D9EAFD"/>
<path transform="translate(1047,546)" d="m0 0h89v4h-89z" fill="#D9EAFD"/>
<path transform="translate(1047,520)" d="m0 0h89v4h-89z" fill="#D9EAFD"/>
<path transform="translate(1047,607)" d="m0 0h89l1 2-1 2h-89z" fill="#D9EAFD"/>
<path transform="translate(1048,589)" d="m0 0h88l1 3-1 1h-89z" fill="#D9EAFD"/>
<path transform="translate(493,345)" d="m0 0h6v34l-3 6-8 3-9-2-4-5v-8h5l2 8 6 1 3-1 1-2z" fill="#102B55"/>
<path transform="translate(801,169)" d="m0 0h6v32l-3 7-4 3-7 1-8-3-2-3v-9h5l2 8 6 1 4-4z" fill="#0F2953"/>
<path transform="translate(927,343)" d="m0 0h57l1 5-1 1h-57l-2-4z" fill="#D9EAFD"/>
<path transform="translate(927,293)" d="m0 0h57l1 5-1 1h-57l-2-4z" fill="#D9EAFD"/>
<path transform="translate(927,318)" d="m0 0h57l1 5-2 1h-56l-2-4z" fill="#D9EAFD"/>
<path transform="translate(643,189)" d="m0 0h7l6 4 1 2v8l-4 5-4 2-7-1-5-5v-9l4-5z" fill="#EEF4FD"/>
<path transform="translate(607,189)" d="m0 0h7l5 4 1 2v8l-2 4-6 3-7-1-5-6v-8l5-5z" fill="#EFF5FD"/>
<path transform="translate(1344,1039)" d="m0 0h21l-1 13-2 3-3 1h-13l-2-7z" fill="#FCBFB2"/>
<path transform="translate(912,141)" d="m0 0 3 3v91l-4 4-12 1v-3l11-2 1-4z" fill="#4299F8"/>
<path transform="translate(571,189)" d="m0 0 7 1 5 5v9l-5 5h-9l-5-5-1-7 3-5z" fill="#3B94F8"/>
<path transform="translate(604,317)" d="m0 0 3 2v92l-4 4h-11v-2l8-2 3-3z" fill="#3C94F8"/>
<path transform="translate(1434,1039)" d="m0 0 4 1v15l-5 1h-13l-2-1-2-14z" fill="#FBBFB2"/>
<path transform="translate(1535,675)" d="m0 0 1 3-5 12-6 10-8 10-11 11-14 10-9 5-16 2h-51l-55-2-2-2h15l58 2h24l19-1 8-2 11-6 10-8 10-9 11-14 7-14z" fill="#133362"/>
<path transform="translate(1154,597)" d="m0 0h60l1 4-1 1h-60l-1-4z" fill="#D9EAFD"/>
<path transform="translate(1154,562)" d="m0 0h59l2 1-1 4h-60l-1-4z" fill="#D9EAFD"/>
<path transform="translate(1154,526)" d="m0 0h60l1 4-2 1h-59l-1-4z" fill="#D9EAFD"/>
<path transform="translate(1154,386)" d="m0 0h60l1 4-2 1h-58l-2-1z" fill="#D9EAFD"/>
<path transform="translate(1156,342)" d="m0 0h57l2 1-1 4h-60l-1-4z" fill="#D9EAFD"/>
<path transform="translate(1158,377)" d="m0 0h55l2 1-1 4h-60l-1-4z" fill="#D9EAFD"/>
<path transform="translate(1154,351)" d="m0 0h60l1 4-5 1h-52l-5-1z" fill="#D9EAFD"/>
<path transform="translate(926,352)" d="m0 0h59l-1 5h-58l-1-4z" fill="#D9EAFD"/>
<path transform="translate(926,327)" d="m0 0h59l-1 5h-58l-1-4z" fill="#D9EAFD"/>
<path transform="translate(926,360)" d="m0 0h58l1 4-1 1h-58l-1-4z" fill="#D9EAFD"/>
<path transform="translate(926,335)" d="m0 0h58l1 4-1 1h-58l-1-4z" fill="#D9EAFD"/>
<path transform="translate(926,310)" d="m0 0h58l1 4-1 1h-58l-1-4z" fill="#D9EAFD"/>
<path transform="translate(926,302)" d="m0 0h58l1 4-1 1h-58l-1-4z" fill="#D9EAFD"/>
<path transform="translate(926,285)" d="m0 0h58l1 4-1 1h-58l-1-4z" fill="#D9EAFD"/>
<path transform="translate(565,933)" d="m0 0 3 1-9 6-24 14-26 15-27 16-14 9-10 9-4 4h26v1h-27l-1-3 12-11 17-12 28-16 27-16 28-16z" fill="#12305E"/>
<path transform="translate(1203,315)" d="m0 0 2 3 4-1 3-2 3 2v3l-4 1h-56l-2-1 1-4z" fill="#D8E9FC"/>
<path transform="translate(1294,246)" d="m0 0h14l6 3 1 6-2 4-5 2h-14z" fill="#3B94F8"/>
<path transform="translate(1317,718)" d="m0 0h15l-1 4-11 8-6 5h-2l-1 3h-4l2-6 10-6-16 4h-7l1-3 17-8z" fill="#FBBFB2"/>
<path transform="translate(558,367)" d="m0 0h15l5 3 1 6-4 5h-17z" fill="#3B94F8"/>
<path transform="translate(1047,512)" d="m0 0h89v3h-89z" fill="#D9EAFD"/>
<path transform="translate(866,191)" d="m0 0h15l5 3v8l-4 3h-16z" fill="#3B94F8"/>
<path transform="translate(879,239)" d="m0 0h19v22l-3 1-12-16-4-5z" fill="#C6DFFC"/>
<path transform="translate(571,415)" d="m0 0h19v23l-4-2-11-14-4-5z" fill="#C4DEFC"/>
<path transform="translate(1154,571)" d="m0 0h60l1 4h-62z" fill="#D9EAFD"/>
<path transform="translate(1153,553)" d="m0 0h62l-1 4h-60z" fill="#D9EAFD"/>
<path transform="translate(1153,518)" d="m0 0h62l-1 4h-60z" fill="#D9EAFD"/>
<path transform="translate(1154,606)" d="m0 0h60v4h-61z" fill="#D9EAFD"/>
<path transform="translate(1153,589)" d="m0 0h61v4h-60z" fill="#D9EAFD"/>
<path transform="translate(1154,535)" d="m0 0h60v4h-61z" fill="#D9EAFD"/>
<path transform="translate(1153,369)" d="m0 0h61v4h-60z" fill="#D9EAFD"/>
<path transform="translate(1153,334)" d="m0 0h61v4h-60z" fill="#D9EAFD"/>
<path transform="translate(1154,580)" d="m0 0h60v4h-60z" fill="#D9EAFD"/>
<path transform="translate(1154,544)" d="m0 0h60v4h-60z" fill="#D9EAFD"/>
<path transform="translate(694,421)" d="m0 0h60v4h-60z" fill="#D9EAFD"/>
<path transform="translate(1154,360)" d="m0 0h60v4h-60z" fill="#D9EAFD"/>
<path transform="translate(1154,325)" d="m0 0h60v4h-60z" fill="#D9EAFD"/>
<path transform="translate(1205,295)" d="m0 0h19l-3 5-13 17h-3z" fill="#F2F7FD"/>
<path transform="translate(695,293)" d="m0 0h60v4h-60z" fill="#D9EAFD"/>
<path transform="translate(695,428)" d="m0 0h59v4h-60l-1-3z" fill="#D9EAFD"/>
<path transform="translate(694,461)" d="m0 0h60l1 3-3 1h-56l-3-1z" fill="#D9EAFD"/>
<path transform="translate(695,286)" d="m0 0h60l1 3-5 1h-52l-5-1z" fill="#D9EAFD"/>
<path transform="translate(345,923)" d="m0 0 5 5 13 9 14 9 9 8 9 11 10 11 11 14 11 15h-3l-9-12-11-13-9-11-10-11-7-8-14-9-11-7-5-4-3-4z" fill="#112F5C"/>
<path transform="translate(1294,229)" d="m0 0h15l3 2 1 5-3 5-4 1h-12z" fill="#3B94F8"/>
<path transform="translate(558,350)" d="m0 0h16l3 4-1 6-3 2h-15z" fill="#3B94F8"/>
<path transform="translate(529,312)" d="m0 0h69l3 3h-72z" fill="#ACD1FB"/>
<path transform="translate(463,413)" d="m0 0h104l1 2-41 1-62-1z" fill="#3B94F8"/>
<path transform="translate(866,174)" d="m0 0h15l3 2v7l-3 3h-15z" fill="#3B94F8"/>
<path transform="translate(768,135)" d="m0 0h140v3l-2-1h-138l-1 3-1 23-2 1v-24z" fill="#112C57"/>
<path transform="translate(693,473)" d="m0 0h62v3h-62z" fill="#D9EAFD"/>
<path transform="translate(694,378)" d="m0 0h62v3h-62z" fill="#D9EAFD"/>
<path transform="translate(694,352)" d="m0 0h62v3h-62z" fill="#D9EAFD"/>
<path transform="translate(694,345)" d="m0 0h62v3h-62z" fill="#D9EAFD"/>
<path transform="translate(694,338)" d="m0 0h62v3h-62z" fill="#D9EAFD"/>
<path transform="translate(694,480)" d="m0 0h61v3h-62z" fill="#D9EAFD"/>
<path transform="translate(694,454)" d="m0 0h61v3h-62z" fill="#D9EAFD"/>
<path transform="translate(694,447)" d="m0 0h61v3h-62z" fill="#D9EAFD"/>
<path transform="translate(693,410)" d="m0 0h62v3h-61z" fill="#D9EAFD"/>
<path transform="translate(693,403)" d="m0 0h62v3h-61z" fill="#D9EAFD"/>
<path transform="translate(693,396)" d="m0 0h62v3h-61z" fill="#D9EAFD"/>
<path transform="translate(694,371)" d="m0 0h62l-1 3h-61z" fill="#D9EAFD"/>
<path transform="translate(694,312)" d="m0 0h61l1 3h-62z" fill="#D9EAFD"/>
<path transform="translate(750,300)" d="m0 0 6 1-1 3h-60l-1-3z" fill="#D9EAFD"/>
<path transform="translate(693,436)" d="m0 0h62l-1 3h-60z" fill="#D9EAFD"/>
<path transform="translate(694,364)" d="m0 0h62l-1 3h-60z" fill="#D9EAFD"/>
<path transform="translate(695,326)" d="m0 0h60l1 3h-62z" fill="#D9EAFD"/>
<path transform="translate(695,319)" d="m0 0h60l1 3h-62z" fill="#D9EAFD"/>
<path transform="translate(1269,513)" d="m0 0h1v138l-4 8-7 5h-5l9-6 3-3 2-7z" fill="#0F274F"/>
<path transform="translate(694,487)" d="m0 0h58l-4 3-3 1-52-1z" fill="#D8E9FC"/>
<path transform="translate(1154,281)" d="m0 0h34v5h-31l-4-1z" fill="#D9EAFD"/>
<path transform="translate(591,591)" d="m0 0h52l1 3h-53z" fill="#FAFBFE"/>
<path transform="translate(591,584)" d="m0 0h53l-1 3h-52z" fill="#FAFBFE"/>
<path transform="translate(591,576)" d="m0 0h52l1 3h-53z" fill="#FAFBFE"/>
<path transform="translate(591,569)" d="m0 0h53l-1 3h-52z" fill="#FAFBFE"/>
<path transform="translate(591,561)" d="m0 0h52l1 3h-53z" fill="#FAFBFE"/>
<path transform="translate(591,482)" d="m0 0h52l1 3h-53z" fill="#FAFBFE"/>
<path transform="translate(591,475)" d="m0 0h53l-1 3h-52z" fill="#FAFBFE"/>
<path transform="translate(591,467)" d="m0 0h52l1 3h-53z" fill="#FAFBFE"/>
<path transform="translate(591,460)" d="m0 0h53l-1 3h-52z" fill="#FAFBFE"/>
<path transform="translate(591,452)" d="m0 0h52l1 3h-53z" fill="#FAFBFE"/>
<path transform="translate(442,876)" d="m0 0h2v25l-1 65h-1l-1-33v-37z" fill="#133363"/>
<path transform="translate(1154,290)" d="m0 0h35l2 4h-37z" fill="#D9EAFD"/>
<path transform="translate(608,373)" d="m0 0h35v4h-35z" fill="#FAFBFE"/>
<path transform="translate(1423,444)" d="m0 0h9l2 2v7l-2 3h-9l-1-1v-10z" fill="#112F5B"/>
<path transform="translate(1362,444)" d="m0 0h9l1 1v10l-1 1h-9l-2-3v-7z" fill="#112F5B"/>
<path transform="translate(1280,444)" d="m0 0h8l2 2v8l-2 2h-9l-1-1v-10z" fill="#112D59"/>
<path transform="translate(1238,444)" d="m0 0h9l2 2v7l-2 3h-9l-1-1v-10z" fill="#112F5B"/>
<path transform="translate(1177,444)" d="m0 0h9l1 1v10l-1 1h-9l-2-3v-7z" fill="#112F5B"/>
<path transform="translate(1095,444)" d="m0 0h8l2 2v8l-2 2h-9l-1-1v-10z" fill="#112D59"/>
<path transform="translate(1465,444)" d="m0 0h8l2 2v8l-2 2h-8l-2-1v-10z" fill="#112C58"/>
<path transform="translate(1506,444)" d="m0 0h8l2 2v8l-2 2h-8l-2-2v-8z" fill="#102B55"/>
<path transform="translate(1321,444)" d="m0 0h8l2 2v8l-2 2h-8l-2-2v-8z" fill="#102B55"/>
<path transform="translate(1136,444)" d="m0 0h8l2 2v8l-2 2h-8l-2-2v-8z" fill="#102B55"/>
<path transform="translate(674,285)" d="m0 0h5l4 4v5l-5 4-5-1-3-3 1-7z" fill="#D9EAFD"/>
<path transform="translate(674,420)" d="m0 0 6 1 2 3-1 7-3 2-6-1-3-4 1-5z" fill="#D9EAFD"/>
<path transform="translate(675,362)" d="m0 0 5 1 3 4-1 6-3 2-7-1-2-3 1-6z" fill="#D9EAFD"/>
<path transform="translate(674,311)" d="m0 0 7 1 2 3-1 6-4 3-5-1-3-4 1-6z" fill="#D9EAFD"/>
<path transform="translate(673,472)" d="m0 0h6l3 3v6l-3 3h-7l-3-4 1-6z" fill="#D9EAFD"/>
<path transform="translate(1053,444)" d="m0 0h9l1 1v10l-1 1h-9l-1-1v-10z" fill="#112D59"/>
<path transform="translate(673,337)" d="m0 0h7l3 4-1 6-2 2h-7l-3-4 1-6z" fill="#D9EAFD"/>
<path transform="translate(673,446)" d="m0 0 7 1 2 3v5l-5 4-5-1-3-4 1-5z" fill="#D9EAFD"/>
<path transform="translate(1218,444)" d="m0 0h9l1 1v9l-1 2h-9l-1-1v-10z" fill="#102C57"/>
<path transform="translate(1485,444)" d="m0 0h8l2 1v10l-2 1h-8l-1-1v-10z" fill="#102B55"/>
<path transform="translate(1444,444)" d="m0 0h8l2 1v10l-2 1h-8l-1-1v-10z" fill="#102B55"/>
<path transform="translate(1341,444)" d="m0 0h8l2 1v10l-2 1h-8l-1-1v-10z" fill="#102B55"/>
<path transform="translate(1300,444)" d="m0 0h8l2 1v10l-2 1h-8l-1-1v-10z" fill="#102B55"/>
<path transform="translate(1156,444)" d="m0 0h8l2 1v10l-2 1h-8l-1-1v-10z" fill="#102B55"/>
<path transform="translate(1115,444)" d="m0 0h8l2 1v10l-2 1h-8l-1-1v-10z" fill="#102B55"/>
<path transform="translate(675,394)" d="m0 0 5 2 2 2-1 7-3 2h-5l-4-5 1-5z" fill="#D9EAFD"/>
<path transform="translate(674,529)" d="m0 0 6 2 1 2v6l-3 3h-6l-3-3v-6l2-3z" fill="#D9EAFD"/>
<path transform="translate(1403,444)" d="m0 0h9l1 2v8l-2 2h-8l-1-1v-10z" fill="#102A54"/>
<path transform="translate(1382,444)" d="m0 0h9l1 1v10l-1 1h-8l-2-2v-8z" fill="#102A54"/>
<path transform="translate(1259,444)" d="m0 0h8l2 2v9l-2 1h-8l-1-1v-10z" fill="#102B55"/>
<path transform="translate(1197,444)" d="m0 0h9l1 1v10l-1 1h-8l-2-2v-8z" fill="#102A54"/>
<path transform="translate(1074,444)" d="m0 0h8l2 2v8l-2 2h-8l-1-1v-10z" fill="#102B55"/>
<path transform="translate(672,504)" d="m0 0h6l3 3v6l-3 3h-6l-3-3v-6z" fill="#D9EAFD"/>
<path transform="translate(909,231)" d="m0 0h2l-1 4-4 2h-7v26l-4 1-12-15-7-9-1-3 4 2 12 16 4 5v2l2-1v-26l11-2z" fill="#102C57"/>
<path transform="translate(673,555)" d="m0 0 6 1 2 3-5 11-1-2-5-2-1-1v-7z" fill="#D6E8FC"/>
<path transform="translate(460,311)" d="m0 0 3 1-4 2v93l1 2 3 2-3 1-3-3v-94z" fill="#102A53"/>
<path transform="translate(608,366)" d="m0 0h36v3h-36z" fill="#FAFBFE"/>
<path transform="translate(608,358)" d="m0 0h35l1 3h-36z" fill="#FAFBFE"/>
<path transform="translate(608,351)" d="m0 0h36l-1 3h-35z" fill="#FAFBFE"/>
<path transform="translate(608,343)" d="m0 0h35l1 3h-36z" fill="#FAFBFE"/>
<path transform="translate(925,538)" d="m0 0 4 2v2h2l4 6-1 10-5-5-4-5z" fill="#F5F8FD"/>
<path transform="translate(600,312)" d="m0 0 4 3-1 91h-1l-1-90z" fill="#15386A"/>
<path transform="translate(954,604)" d="m0 0h6l1 6v12l-5-1z" fill="#F1F6FD"/>
<path transform="translate(693,505)" d="m0 0h31l-4 4-27-1z" fill="#D5E8FC"/>
<path transform="translate(952,670)" d="m0 0h3v6l-4 9-6 12-2-1 3-9z" fill="#F0F5FD"/>
<path transform="translate(1205,295)" d="m0 0h1v13l4-1 4 2-7 9-2-1z" fill="#A2CCFB"/>
<path transform="translate(471,989)" d="m0 0h2v2l-6 4-12 10-1 2h26v1h-27l-1-3 12-11z" fill="#133362"/>
<path transform="translate(693,512)" d="m0 0h23l-4 4-19-1z" fill="#D4E7FC"/>
<path transform="translate(946,579)" d="m0 0 7 1 2 5v5l-6-1-3-7z" fill="#F1F6FD"/>
<path transform="translate(1454,548)" d="m0 0h2l-2 6-3 3-6 1-5-2 4-3 5-1z" fill="#ECF3FD"/>
<path transform="translate(907,354)" d="m0 0 5 1 1 5-3 3-5-1-1-5z" fill="#D9EAFD"/>
<path transform="translate(908,321)" d="m0 0 4 2 1 4-2 3h-5l-2-2 1-5z" fill="#D9EAFD"/>
<path transform="translate(906,289)" d="m0 0h5l2 2-1 5-1 1h-5l-2-2 1-5z" fill="#D9EAFD"/>
<path transform="translate(875,237)" d="m0 0 4 2 12 16 4 5v2l3 1-3 1-12-15-7-9z" fill="#112F5C"/>
<path transform="translate(567,413)" d="m0 0 4 2 12 16 7 8-3 1-14-18z" fill="#112E5B"/>
<path transform="translate(942,698)" d="m0 0 1 3-7 11-5 6-1-3 7-10z" fill="#E1EEFD"/>
<path transform="translate(997,446)" d="m0 0h1v19l-2-1-1-6v-11z" fill="#C6DFFC"/>
<path transform="translate(693,519)" d="m0 0h15l-2 4-13-1z" fill="#CEE4FC"/>
<path transform="translate(1330,722)" d="m0 0 2 1-16 12-5 4 1-4 12-9z" fill="#1E4F8E"/>
<path transform="translate(1268,648)" d="m0 0 2 1-2 7-4 5-5 3h-5l9-6 3-3z" fill="#12305D"/>
<path transform="translate(1482,560)" d="m0 0 1 4-7 10-4 3-2-1 8-8z" fill="#1E4D8A"/>
<path transform="translate(1513,711)" d="m0 0 2 1-9 9-7 5-2-1 14-12z" fill="#123261"/>
<path transform="translate(1206,299)" d="m0 0h8v4h-8z" fill="#D9EAFD"/>
<path transform="translate(398,970)" d="m0 0h2l9 11-2 2-9-11z" fill="#12305D"/>
<path transform="translate(572,416)" d="m0 0h6v7l-4-2z" fill="#E8F1FD"/>
<path transform="translate(1216,305)" d="m0 0 3 1-9 11h-3z" fill="#183F74"/>
<path transform="translate(1211,315)" d="m0 0 4 2v3l-4 1-3-1 2-4z" fill="#CDE3FC"/>
<path transform="translate(345,923)" d="m0 0 10 10h-3l-7-7z" fill="#112E5A"/>
<path transform="translate(1479,515)" d="m0 0 2 1-4 6-2 7h-1v-7l4-6z" fill="#1B4781"/>
</svg>
