<svg xmlns="http://www.w3.org/2000/svg" version="1.1" xlink="http://www.w3.org/1999/xlink" xmlns:svgjs="http://svgjs.com/svgjs" width="100%" height="100%" preserveAspectRatio="xMidYMid meet" viewBox="0.00000433506920671789 -9.662330739956815e-7 299.99847412109375 104.65074920654297" overflow="visible">
    <defs id="SvgjsDefs89902">
        <linearGradient id="SvgjsLinearGradientBd978HZN7N" gradientUnits="userSpaceOnUse" x1="8.911010528802121" y1="91.11880309038591" x2="91.17616078267208"  y2="8.85365283651594" >
            <stop id="SvgjsStop89905" stop-color="#78c4f7" offset="0.05"></stop>
            <stop id="SvgjsStop89906" stop-color="#0e8de1" offset="0.95"></stop>
        </linearGradient>
    </defs>
    <g id="SvgjsG89903" transform="scale(0.6493506493506495)" opacity="1">
        <g id="SvgjsG89907" class="Vqz-Ue6GM" transform="translate(-19.514544615023873, -14.152652142936846) scale(1.8951778632455933)" light-content="false" non-strokable="false" fill="url(#SvgjsLinearGradientBd978HZN7N)">
            <path d="M74.715 22.215c4.035-.785 6.68-4.68 5.894-8.715s-4.68-6.68-8.714-5.894c-4.035.785-6.68 4.68-5.895 8.715.785 4.035 4.68 6.68 8.715 5.894zm13.64 21.64l-8.93-5.75C77.461 35.675 67.82 23.89 67.82 23.89c-.965-1.145-2.105-1.535-3.214-1.5-.465-.145-1-.215-1.57-.145l-15.93 1.75h-.286c-.894.145-1.715.57-2.32 1.32l-8.785 11.356c-.43.535-.57 1.105-.606 1.68-.644-.18-1.285-.32-1.965-.32a6.948 6.948 0 0 0-6.394 4.214l-5.07-2.356c-1.68-.785-3.68-.035-4.465 1.645l-6.606 14.18c-.785 1.68-.035 3.68 1.645 4.465l22.215 10.32c1.68.785 3.68.035 4.464-1.645l6.606-14.18c.785-1.68.035-3.68-1.645-4.465l-4.5-2.105c.465-.93.75-1.965.75-3.07 0-1.32-.394-2.536-1-3.57a3.053 3.053 0 0 0 1.145-.715l9.105-8.75c1.215-.145 3.145-.356 5.215-.57l-2.144 21.104s0 .215-.035.32V68.57l-9.75 13.5c-.965 1.32-.856 3.18.32 4.355 1.32 1.32 3.465 1.356 4.785 0l13.32-13.105c.785-.75 1.18-1.894 1.18-3.035l.965-12.32 10.855 12.57c.965 4.25 4.394 19.215 4.394 19.215 1.106 4.465 7.785 3.144 7.07-1.395L82.14 67.75c.716-.07-12.394-19.07-12.644-19.645-.18-.285-.395-.5-.606-.715l1.57-7.285 3 3.645.215.25c0 .68 11.25 4.855 11.895 5.25 3.356 1.43 5.93-3.465 2.82-5.43zm-58.75-.25c.57-1.355 1.895-2.32 3.465-2.32 2.07 0 3.75 1.68 3.75 3.75 0 .644-.18 1.18-.465 1.714z"></path>
        </g>

        <g id="SvgjsG89908" class="text" transform="translate(319.85758528534495, 144.04214556998) scale(1)" light-content="false" fill="#0e8de1">
            <path d="M-125.1 0.81C-119.31 0.81 -114.79 -0.62 -111.57 -3.46C-108.35 -6.31 -106.14 -10.83 -104.93 -17.03L-97.16 -56.74L-120.31 -56.74L-122.08 -47.44L-110.77 -47.44L-116.53 -17.72C-117.01 -15.22 -117.57 -13.38 -118.22 -12.2C-118.86 -11.02 -119.68 -10.11 -120.67 -9.46C-121.67 -8.82 -122.89 -8.5 -124.34 -8.5C-128.66 -8.5 -131.44 -11.53 -132.68 -17.6L-143.43 -15.26C-142.41 -9.71 -140.37 -5.64 -137.33 -3.06C-134.28 -0.48 -130.21 0.81 -125.1 0.81Z M-74.4 0.81C-65.76 0.81 -59.21 -0.72 -54.75 -3.77C-50.29 -6.81 -48.06 -11.24 -48.06 -17.03C-48.06 -19.21 -48.39 -21.13 -49.03 -22.79C-49.68 -24.46 -50.61 -25.94 -51.83 -27.22C-53.05 -28.51 -54.68 -29.67 -56.72 -30.71C-58.76 -31.74 -61.92 -32.85 -66.19 -34.03C-70.16 -35.1 -72.82 -35.97 -74.16 -36.63C-75.5 -37.28 -76.52 -38.06 -77.22 -38.94C-77.92 -39.83 -78.27 -40.9 -78.27 -42.16C-78.27 -44.34 -77.32 -46.05 -75.41 -47.3C-73.5 -48.55 -70.89 -49.17 -67.56 -49.17C-64.39 -49.17 -61.82 -48.45 -59.84 -47.02C-57.87 -45.58 -56.59 -43.65 -56 -41.24L-44.4 -43.94C-45.29 -48.39 -47.66 -51.78 -51.53 -54.11C-55.39 -56.43 -60.52 -57.59 -66.91 -57.59C-73.87 -57.59 -79.45 -56.14 -83.66 -53.24C-87.88 -50.34 -89.99 -46.51 -89.99 -41.76C-89.99 -38.78 -89.36 -36.26 -88.11 -34.21C-86.87 -32.16 -85.05 -30.42 -82.68 -29C-80.3 -27.57 -76.64 -26.2 -71.7 -24.89C-66.93 -23.68 -63.73 -22.45 -62.12 -21.2C-60.51 -19.95 -59.7 -18.26 -59.7 -16.11C-59.7 -10.77 -64.33 -8.09 -73.6 -8.09C-77.36 -8.09 -80.21 -8.78 -82.15 -10.15C-84.1 -11.52 -85.36 -13.69 -85.92 -16.67L-97.56 -14.7C-96.81 -9.44 -94.55 -5.54 -90.79 -3C-87.03 -0.46 -81.57 0.81 -74.4 0.81Z M-14.24 -36.53C-11.98 -36.53 -10.34 -35.81 -9.3 -34.37C-8.27 -32.94 -7.75 -30.79 -7.75 -27.95C-7.75 -25.02 -8.21 -21.65 -9.12 -17.84C-10.03 -14.03 -11.28 -11.26 -12.87 -9.54C-14.45 -7.83 -16.61 -6.97 -19.35 -6.97C-21.9 -6.97 -23.89 -7.78 -25.31 -9.4C-26.73 -11.03 -27.45 -13.28 -27.45 -16.15C-27.45 -17.76 -27.22 -19.81 -26.76 -22.31C-25.85 -27.06 -24.38 -30.62 -22.35 -32.98C-20.32 -35.35 -17.62 -36.53 -14.24 -36.53ZM-23.7 -36.77L-23.86 -36.77C-23.65 -37.52 -23.44 -38.75 -23.24 -40.45C-23.04 -42.16 -22.93 -43.2 -22.93 -43.57L-34.01 -43.57L-34.77 -37.98L-35.58 -33.55L-45.37 17.12L-34.09 17.12L-30.87 0.4C-30.2 -2.98 -29.77 -5.5 -29.58 -7.17L-29.5 -7.17C-28.64 -4.64 -27.16 -2.68 -25.07 -1.29C-22.98 0.11 -20.25 0.81 -16.89 0.81C-12.22 0.81 -8.38 -0.42 -5.36 -2.88C-2.34 -5.34 0.01 -9.13 1.67 -14.28C3.34 -19.42 4.17 -24.7 4.17 -30.12C4.17 -34.55 2.97 -38.04 0.58 -40.57C-1.81 -43.11 -5.13 -44.38 -9.4 -44.38C-12.57 -44.38 -15.26 -43.78 -17.48 -42.59C-19.69 -41.39 -21.77 -39.45 -23.7 -36.77Z M42.75 0.4C43.96 0.4 45.14 0.36 46.29 0.28C47.45 0.2 48.59 -0.05 49.72 -0.48L50.28 -6.73C49.42 -6.54 48.59 -6.44 47.78 -6.44C47.59 -6.44 47.33 -6.46 46.98 -6.5C46.63 -6.54 46.28 -6.64 45.93 -6.81C45.58 -6.97 45.27 -7.22 45 -7.57C44.74 -7.92 44.6 -8.42 44.6 -9.06C44.6 -9.79 44.71 -10.75 44.92 -11.96L47.78 -26.18C48.43 -29.4 48.75 -31.51 48.75 -32.5C48.75 -36.5 47.45 -39.48 44.86 -41.44C42.27 -43.4 38.2 -44.38 32.64 -44.38C27.32 -44.38 23.06 -43.37 19.85 -41.36C16.65 -39.35 14.59 -36.41 13.67 -32.54L24.26 -31.29C24.72 -33.14 25.57 -34.56 26.8 -35.54C28.04 -36.52 29.92 -37.01 32.44 -37.01C35.85 -37.01 37.55 -35.29 37.55 -31.85C37.55 -30.89 37.27 -29.13 36.71 -26.58L29.02 -26.46C21.34 -26.32 15.79 -24.99 12.36 -22.45C8.94 -19.91 7.23 -16.16 7.23 -11.2C7.23 -7.68 8.35 -4.8 10.59 -2.56C12.83 -0.32 15.83 0.81 19.59 0.81C22.76 0.81 25.45 0.15 27.65 -1.15C29.85 -2.45 32.08 -4.85 34.33 -8.34L34.57 -8.34C34.44 -7.61 34.37 -6.75 34.37 -5.76C34.37 -3.91 35.1 -2.42 36.55 -1.29C38 -0.16 40.06 0.4 42.75 0.4ZM35.46 -20.26L34.57 -16.55C33.85 -13.71 32.57 -11.42 30.75 -9.69C28.92 -7.95 26.89 -7.09 24.67 -7.09C22.87 -7.09 21.44 -7.62 20.38 -8.68C19.32 -9.74 18.79 -11.21 18.79 -13.09C18.79 -15.34 19.69 -17.09 21.51 -18.32C23.32 -19.56 25.79 -20.2 28.94 -20.26Z M74.28 -6.97C69.5 -6.97 67.11 -10.11 67.11 -16.39C67.11 -17.81 67.42 -20.07 68.04 -23.16C69.35 -28.18 70.82 -31.67 72.45 -33.65C74.07 -35.62 76.32 -36.61 79.19 -36.61C83.38 -36.61 85.62 -34.04 85.92 -28.92L97.36 -29.84C96.98 -34.41 95.28 -37.97 92.24 -40.53C89.21 -43.1 85.15 -44.38 80.08 -44.38C74.82 -44.38 70.42 -43.31 66.89 -41.16C63.36 -39.01 60.54 -35.64 58.41 -31.05C56.29 -26.46 55.23 -21.55 55.23 -16.31C55.23 -10.94 56.82 -6.75 60 -3.73C63.19 -0.7 67.73 0.81 73.64 0.81C84.46 0.81 91.3 -3.91 94.18 -13.33L83.26 -15.34C82.4 -12.58 81.25 -10.49 79.8 -9.08C78.35 -7.67 76.51 -6.97 74.28 -6.97Z M112.98 -19.17L141.17 -19.17C141.82 -22.28 142.14 -25.17 142.14 -27.83C142.14 -33.09 140.62 -37.16 137.57 -40.05C134.52 -42.94 130.19 -44.38 124.58 -44.38C119.91 -44.38 115.79 -43.27 112.24 -41.04C108.68 -38.81 105.93 -35.61 104 -31.43C102.07 -27.26 101.1 -22.39 101.1 -16.83C101.1 -11.28 102.71 -6.95 105.93 -3.85C109.16 -0.75 113.63 0.81 119.35 0.81C124.18 0.81 128.08 -0.03 131.06 -1.69C134.04 -3.36 136.54 -6.32 138.56 -10.59L128.69 -13.57C126.92 -9.03 124.06 -6.77 120.11 -6.77C117.67 -6.77 115.82 -7.52 114.57 -9.04C113.32 -10.56 112.7 -12.74 112.7 -15.59C112.7 -16.95 112.79 -18.15 112.98 -19.17ZM131.67 -26.7L114.31 -26.7C115.06 -30.14 116.32 -32.75 118.08 -34.53C119.84 -36.32 122 -37.21 124.58 -37.21C126.73 -37.21 128.47 -36.55 129.8 -35.24C131.12 -33.92 131.79 -31.83 131.79 -28.96Z"></path>
        </g>
    </g>
</svg>